<svg width="178" height="195" viewBox="0 0 178 195" fill="none" xmlns="http://www.w3.org/2000/svg">
<mask id="mask0_1_63" style="mask-type:luminance" maskUnits="userSpaceOnUse" x="0" y="0" width="178" height="195">
<path d="M178 0H0V195H178V0Z" fill="white"/>
</mask>
<g mask="url(#mask0_1_63)">
<path d="M153.68 3.15308C145.71 3.15308 139.11 9.65638 139.11 17.7362C139.11 25.7175 145.61 32.3193 153.68 32.3193C161.66 32.3193 168.15 25.816 168.15 17.7362C168.15 9.65638 161.66 3.15308 153.68 3.15308ZM153.78 6.89738C159.59 6.89738 164.41 11.6271 164.41 17.5391C164.41 23.4512 159.69 28.1809 153.78 28.1809C147.97 28.1809 143.25 23.4512 143.25 17.5391C143.25 11.6271 147.97 6.89738 153.78 6.89738Z" fill="white"/>
<path d="M83.0901 31.4325C83.0901 32.4178 82.99 33.4032 82.8 34.3885C82.6 35.3739 82.3099 36.2607 81.9099 37.246C81.5199 38.1328 81.03 39.0197 80.53 39.8079C79.94 40.5962 79.3499 41.3845 78.6599 42.0742C77.9699 42.764 77.1899 43.3552 76.3999 43.9464C75.6099 44.5376 74.7201 44.9317 73.8401 45.3259C72.9501 45.72 71.97 46.0156 70.98 46.2127C70 46.4097 69.01 46.5083 68.03 46.5083C67.05 46.5083 66.0601 46.4097 65.0801 46.2127C64.0901 46.0156 63.21 45.72 62.22 45.3259C61.34 44.9317 60.4499 44.5376 59.6599 43.9464C58.8699 43.3552 58.0899 42.764 57.3999 42.0742C56.7099 41.3845 56.12 40.5962 55.53 39.8079C54.94 39.0197 54.5399 38.1328 54.1499 37.246C53.7499 36.3592 53.46 35.3739 53.26 34.3885C53.07 33.4032 52.97 32.4178 52.97 31.4325C52.97 30.4471 53.07 29.4618 53.26 28.4764C53.46 27.4911 53.7499 26.6043 54.1499 25.6189C54.5399 24.7321 54.94 23.8453 55.53 23.057C56.12 22.2688 56.7099 21.4805 57.3999 20.7907C58.0899 20.101 58.8699 19.5098 59.6599 18.9186C60.4499 18.3274 61.34 17.9332 62.22 17.5391C63.11 17.145 64.0901 16.8494 65.0801 16.6523C66.0601 16.4552 67.05 16.3567 68.03 16.3567C69.01 16.3567 70 16.4552 70.98 16.6523C71.97 16.8494 72.8501 17.145 73.8401 17.5391C74.7201 17.9332 75.6099 18.4259 76.3999 18.9186C77.1899 19.5098 77.9699 20.101 78.6599 20.7907C79.3499 21.4805 79.94 22.2688 80.53 23.057C81.12 23.8453 81.5199 24.7321 81.9099 25.6189C82.3099 26.5058 82.6 27.4911 82.8 28.4764C82.99 29.4618 83.0901 30.4471 83.0901 31.4325Z" fill="white"/>
<path d="M98.6498 34.1916C115.19 25.0278 128.87 11.9227 142.56 -0.689697C138.91 7.4887 134.68 15.5685 128.87 22.4659C119.82 33.4033 110.46 44.8333 97.6599 51.5336C93.6299 54.0955 87.1299 50.6468 88.2099 45.4245C88.6999 39.808 94.5098 36.9505 98.6498 34.1916Z" fill="white"/>
<path d="M65.5701 107.6C70.2901 106.22 74.2301 111.738 73.3501 116.074C73.1501 129.179 65.96 140.905 59.96 152.137C50.8 166.622 42.9201 181.895 32.5901 195.591C35.6401 183.866 39.68 172.337 42.53 160.513C46.47 145.24 49.9101 129.573 57.1001 115.286C58.9701 112.034 61.4301 107.994 65.5701 107.6Z" fill="white"/>
<path d="M97.5701 81.981C100.52 80.7985 104.26 81.094 106.33 83.853C109.38 87.893 109.77 93.312 109.67 98.141C107.02 119.72 93.23 137.653 79.45 153.616C82.9 143.269 88.7 133.712 90.97 122.873C91.95 118.636 92.4499 114.3 93.1299 109.965C91.2599 111.738 89.6899 113.906 87.4199 115.187C84.1799 116.468 80.7299 114.399 79.6499 111.344C77.4799 107.107 78.5601 102.082 80.3401 97.845C83.8801 90.75 89.7901 84.247 97.5701 81.981Z" fill="white"/>
<path d="M33.0801 65.5256C38.3001 61.0916 43.8099 55.6721 51.1899 55.7707C54.9399 55.4751 58.0901 59.8106 56.8101 63.3579C56.0201 66.511 52.7699 67.989 50.4099 69.9597C39.3799 77.2512 27.9599 84.247 18.4099 93.608C12.1099 99.717 7.19 107.107 0 112.231C6.89 94.199 19.0001 78.5322 33.0801 65.5256Z" fill="white"/>
<path d="M136.55 34.5857C150.34 33.6004 164.12 33.6989 177.9 34.4872C176.92 39.3154 175.34 44.045 174.26 48.8732C173.27 54.0956 172.88 59.4164 171.9 64.6388L168.45 64.5402C168.06 55.5736 169.93 46.7055 172.39 38.133C162.25 38.0344 152.01 38.0344 141.87 38.0344C144.13 46.0157 145.9 54.1941 145.81 62.471C146 64.2446 143.64 64.3432 142.56 65.1314C141.67 58.8252 141.38 52.4205 139.6 46.3113C138.62 42.3699 137.14 38.6256 136.55 34.5857Z" fill="white"/>
</g>
</svg>
