<svg width="167" height="251" viewBox="0 0 167 251" fill="none" xmlns="http://www.w3.org/2000/svg">
<path d="M33.5 156.5C33.499 157.574 33.399 158.645 33.2 159.7C32.992 160.725 32.691 161.73 32.3 162.7C31.882 163.675 31.38 164.612 30.8 165.5C30.21 166.42 29.505 167.26 28.7 168C27.972 168.748 27.167 169.419 26.3 170C25.387 170.598 24.416 171.101 23.4 171.5C22.449 171.966 21.44 172.303 20.4 172.5C18.285 172.9 16.115 172.9 14 172.5C12.927 172.304 11.885 171.968 10.9 171.5C9.92704 171.079 8.98999 170.577 8.09999 170C7.20099 169.42 6.36299 168.75 5.59999 168C4.85599 167.232 4.18599 166.395 3.59999 165.5C2.98299 164.634 2.47899 163.693 2.09999 162.7C1.70899 161.73 1.40802 160.725 1.20002 159.7C0.800024 157.585 0.800024 155.415 1.20002 153.3C1.40802 152.275 1.70899 151.27 2.09999 150.3C2.47899 149.307 2.98299 148.366 3.59999 147.5C4.18599 146.605 4.85599 145.768 5.59999 145C6.36299 144.25 7.20099 143.58 8.09999 143C8.98999 142.423 9.92704 141.921 10.9 141.5C11.885 141.032 12.927 140.696 14 140.5C16.115 140.1 18.285 140.1 20.4 140.5C21.44 140.697 22.449 141.034 23.4 141.5C24.416 141.899 25.387 142.402 26.3 143C27.167 143.581 27.972 144.252 28.7 145C29.505 145.74 30.21 146.58 30.8 147.5C31.38 148.388 31.882 149.325 32.3 150.3C32.691 151.27 32.992 152.275 33.2 153.3C33.399 154.355 33.499 155.426 33.5 156.5Z" fill="white"/>
<path d="M151.1 15.4C151.1 16.4 151 17.4 150.9 18.4C150.71 19.3964 150.4 20.3688 150 21.3C149.58 22.2408 149.08 23.1441 148.5 24C147.95 24.8335 147.32 25.6047 146.6 26.3C145.88 26.9868 145.11 27.6217 144.3 28.2C142.59 29.2936 140.69 30.0725 138.7 30.5C136.72 30.9013 134.68 30.9013 132.7 30.5C131.7 30.306 130.73 30.0042 129.8 29.6C128.86 29.213 127.96 28.7445 127.1 28.2C126.29 27.6217 125.52 26.9868 124.8 26.3C124.08 25.6047 123.45 24.8335 122.9 24C122.32 23.1441 121.82 22.2408 121.4 21.3C121.07 20.3506 120.81 19.3821 120.6 18.4C120.2 16.4198 120.2 14.3801 120.6 12.4C120.81 11.4178 121.07 10.4493 121.4 9.5C121.82 8.5591 122.32 7.6558 122.9 6.8C123.45 5.9664 124.08 5.1952 124.8 4.5C125.5 3.7848 126.27 3.1477 127.1 2.6C127.93 2.0168 128.84 1.5461 129.8 1.2C130.73 0.795703 131.7 0.493902 132.7 0.300002C134.68 -0.0986984 136.72 -0.0986984 138.7 0.300002C139.7 0.493902 140.67 0.795703 141.6 1.2C142.57 1.5248 143.48 1.997 144.3 2.6C145.13 3.1477 145.9 3.7848 146.6 4.5C147.32 5.1952 147.95 5.9664 148.5 6.8C149.08 7.6558 149.58 8.5591 150 9.5C150.4 10.4311 150.71 11.4035 150.9 12.4C151 13.4 151.1 14.4 151.1 15.4Z" fill="white"/>
<path d="M29.7 29.0999C49.3 27.1999 69 25.5999 88.7 23.9999C93.6 24.0999 98.5 23.4999 103.2 24.7999C106.2 25.5999 109.3 28.0999 109.2 31.4999C109.1 34.8999 105.2 37.1999 102 37.7999C88.3 39.4999 74.6 37.3999 60.9 36.0999L24.7 32.1999C22.408 32.0699 20.132 31.7353 17.9 31.1999C21.6 29.5999 25.7 29.5999 29.7 29.0999Z" fill="white"/>
<path d="M142.8 44.3C142.2 40.3 146.2 37.3 149.8 37.3C153.4 37.3 158.7 42.4001 160.9 46.7001C163.4 52.6 165.8 58.5001 166.8 64.9001C167.3 69.1001 166.4 73.8 163.1 76.7C157.2 81.7 149.5 83.7 142 85C134.5 86.3 129.7 86.8 123.5 86.8C123.7 85 125.6 84.6 127 83.9C136.3 80.3 145.8 76.5 153.8 70.3C154.5 69.6001 155.7 68.9001 155.2 67.8001C154.1 64.7001 152 62.2001 150.4 59.4001C147.6 54.5001 143.9 49.9 142.8 44.3Z" fill="white"/>
<path d="M86.9001 70.3C90.0001 69.0001 93.9 69.1001 96.6 71.2C99.3 73.3 98.2 75 97.6 76.8C95.6 83.5 91.3 89.1 86.8 94.2C82.3 99.3 78.1001 103.6 73.4001 107.9C71.0001 110 68.5 112.3 65.2 112.9C63.726 113.272 62.169 113.115 60.799 112.457C59.428 111.799 58.332 110.682 57.7 109.3C57.3 106.3 58.4 103.3 59.8 100.6C62.441 95.621 65.59 90.93 69.2 86.6C74.3 80.4 79.6001 73.9 86.9001 70.3Z" fill="white"/>
<path d="M103.7 84.1C107.3 82.4 112.3 82.1 115.4 85.1C118.5 88.1 116.8 91.3 115.8 94.2C113.68 99.687 110.67 104.788 106.9 109.3C87.0001 132.4 64.1001 152.7 42.0001 173.7C41.4771 174.188 40.908 174.623 40.3 175C41.6 171.1 44.0001 167.8 46.0001 164.3C59.9001 142 73.8001 119.9 89.0001 98.5C93.3001 93.2 97.4 87.3 103.7 84.1Z" fill="white"/>
<path d="M56.683 250.1V238.463H63.66V239.713H58.092V243.645H63.137V244.895H58.092V250.1H56.683ZM70.84 246.531V241.372H72.19V250.1H70.84V248.622H70.75C70.55 249.066 70.23 249.442 69.8 249.753C69.37 250.06 68.82 250.213 68.16 250.213C67.62 250.213 67.13 250.094 66.71 249.855C66.28 249.613 65.95 249.249 65.71 248.764C65.47 248.276 65.34 247.66 65.34 246.918V241.372H66.69V246.827C66.69 247.463 66.86 247.971 67.22 248.35C67.58 248.728 68.04 248.918 68.59 248.918C68.93 248.918 69.27 248.833 69.61 248.662C69.96 248.492 70.25 248.23 70.49 247.878C70.73 247.526 70.84 247.077 70.84 246.531ZM78.44 241.372V242.509H73.91V241.372H78.44ZM75.23 239.281H76.57V247.6C76.57 247.978 76.63 248.262 76.74 248.452C76.85 248.637 77 248.762 77.17 248.827C77.35 248.887 77.54 248.918 77.73 248.918C77.88 248.918 78 248.91 78.1 248.895C78.19 248.876 78.27 248.861 78.32 248.85L78.6 250.054C78.5 250.088 78.38 250.122 78.22 250.156C78.05 250.194 77.85 250.213 77.6 250.213C77.22 250.213 76.85 250.132 76.48 249.969C76.12 249.806 75.82 249.558 75.58 249.225C75.35 248.891 75.23 248.471 75.23 247.963V239.281ZM84.02 250.281C83.18 250.281 82.45 250.096 81.84 249.725C81.24 249.35 80.77 248.827 80.44 248.156C80.11 247.482 79.95 246.698 79.95 245.804C79.95 244.91 80.11 244.122 80.44 243.441C80.77 242.755 81.23 242.221 81.81 241.838C82.41 241.452 83.09 241.259 83.88 241.259C84.34 241.259 84.79 241.334 85.23 241.486C85.67 241.637 86.08 241.884 86.44 242.225C86.8 242.562 87.09 243.009 87.31 243.566C87.52 244.122 87.63 244.808 87.63 245.622V246.191H80.91V245.031H86.27C86.27 244.539 86.17 244.1 85.97 243.713C85.78 243.327 85.5 243.022 85.14 242.798C84.79 242.575 84.37 242.463 83.88 242.463C83.35 242.463 82.89 242.596 82.5 242.861C82.11 243.122 81.81 243.463 81.6 243.884C81.4 244.304 81.29 244.755 81.29 245.236V246.009C81.29 246.668 81.41 247.227 81.63 247.685C81.86 248.139 82.18 248.486 82.59 248.725C83 248.959 83.48 249.077 84.02 249.077C84.37 249.077 84.69 249.028 84.97 248.929C85.26 248.827 85.51 248.675 85.72 248.475C85.93 248.27 86.09 248.016 86.2 247.713L87.5 248.077C87.36 248.516 87.13 248.903 86.81 249.236C86.49 249.566 86.09 249.823 85.62 250.009C85.14 250.191 84.61 250.281 84.02 250.281ZM89.85 250.1V238.463H91.2V242.759H91.3101C91.4101 242.607 91.54 242.414 91.72 242.179C91.9 241.941 92.15 241.728 92.48 241.543C92.81 241.353 93.26 241.259 93.83 241.259C94.57 241.259 95.21 241.442 95.77 241.81C96.34 242.177 96.77 242.698 97.09 243.372C97.4 244.047 97.5601 244.842 97.5601 245.759C97.5601 246.683 97.4 247.484 97.09 248.162C96.77 248.836 96.34 249.359 95.78 249.73C95.22 250.098 94.58 250.281 93.85 250.281C93.29 250.281 92.84 250.189 92.51 250.003C92.17 249.814 91.91 249.6 91.73 249.361C91.55 249.119 91.4101 248.918 91.3101 248.759H91.15V250.1H89.85ZM91.17 245.736C91.17 246.395 91.27 246.977 91.46 247.48C91.66 247.98 91.9401 248.372 92.3101 248.656C92.6801 248.937 93.13 249.077 93.67 249.077C94.23 249.077 94.7 248.929 95.08 248.634C95.45 248.334 95.7401 247.933 95.9301 247.429C96.1201 246.922 96.22 246.357 96.22 245.736C96.22 245.122 96.1201 244.569 95.9301 244.077C95.7501 243.581 95.47 243.189 95.09 242.901C94.71 242.609 94.24 242.463 93.67 242.463C93.13 242.463 92.67 242.602 92.3 242.878C91.93 243.151 91.65 243.533 91.46 244.026C91.27 244.514 91.17 245.084 91.17 245.736ZM103.16 250.281C102.37 250.281 101.68 250.094 101.08 249.719C100.49 249.344 100.03 248.819 99.7 248.145C99.37 247.471 99.2 246.683 99.2 245.781C99.2 244.872 99.37 244.079 99.7 243.401C100.03 242.723 100.49 242.196 101.08 241.821C101.68 241.446 102.37 241.259 103.16 241.259C103.94 241.259 104.63 241.446 105.22 241.821C105.82 242.196 106.28 242.723 106.61 243.401C106.94 244.079 107.11 244.872 107.11 245.781C107.11 246.683 106.94 247.471 106.61 248.145C106.28 248.819 105.82 249.344 105.22 249.719C104.63 250.094 103.94 250.281 103.16 250.281ZM103.16 249.077C103.75 249.077 104.25 248.923 104.63 248.617C105.02 248.31 105.31 247.906 105.49 247.406C105.68 246.906 105.77 246.365 105.77 245.781C105.77 245.198 105.68 244.655 105.49 244.151C105.31 243.647 105.02 243.24 104.63 242.929C104.25 242.619 103.75 242.463 103.16 242.463C102.56 242.463 102.06 242.619 101.68 242.929C101.29 243.24 101.01 243.647 100.82 244.151C100.63 244.655 100.54 245.198 100.54 245.781C100.54 246.365 100.63 246.906 100.82 247.406C101.01 247.906 101.29 248.31 101.68 248.617C102.06 248.923 102.56 249.077 103.16 249.077ZM110.5 238.463V250.1H109.16V238.463H110.5Z" fill="white"/>
</svg>
