<svg width="167" height="251" viewBox="0 0 167 251" fill="none" xmlns="http://www.w3.org/2000/svg">
<path d="M33.5 156.5C33.499 157.574 33.399 158.645 33.2 159.7C32.992 160.725 32.691 161.73 32.3 162.7C31.882 163.675 31.38 164.612 30.8 165.5C30.21 166.42 29.505 167.26 28.7 168C27.972 168.748 27.167 169.419 26.3 170C25.387 170.598 24.416 171.101 23.4 171.5C22.449 171.966 21.44 172.303 20.4 172.5C18.285 172.9 16.115 172.9 14 172.5C12.927 172.304 11.885 171.968 10.9 171.5C9.92704 171.079 8.98999 170.577 8.09999 170C7.20099 169.42 6.36299 168.75 5.59999 168C4.85599 167.232 4.18599 166.395 3.59999 165.5C2.98299 164.634 2.47899 163.693 2.09999 162.7C1.70899 161.73 1.40802 160.725 1.20002 159.7C0.800024 157.585 0.800024 155.415 1.20002 153.3C1.40802 152.275 1.70899 151.27 2.09999 150.3C2.47899 149.307 2.98299 148.366 3.59999 147.5C4.18599 146.605 4.85599 145.768 5.59999 145C6.36299 144.25 7.20099 143.58 8.09999 143C8.98999 142.423 9.92704 141.921 10.9 141.5C11.885 141.032 12.927 140.696 14 140.5C16.115 140.1 18.285 140.1 20.4 140.5C21.44 140.697 22.449 141.034 23.4 141.5C24.416 141.899 25.387 142.402 26.3 143C27.167 143.581 27.972 144.252 28.7 145C29.505 145.74 30.21 146.58 30.8 147.5C31.38 148.388 31.882 149.325 32.3 150.3C32.691 151.27 32.992 152.275 33.2 153.3C33.399 154.355 33.499 155.426 33.5 156.5Z" fill="white"/>
<path d="M151.1 15.4C151.1 16.4 151 17.4 150.9 18.4C150.71 19.3964 150.4 20.3688 150 21.3C149.58 22.2408 149.08 23.1441 148.5 24C147.95 24.8335 147.32 25.6047 146.6 26.3C145.88 26.9868 145.11 27.6217 144.3 28.2C142.59 29.2936 140.69 30.0725 138.7 30.5C136.72 30.9013 134.68 30.9013 132.7 30.5C131.7 30.306 130.73 30.0042 129.8 29.6C128.86 29.213 127.96 28.7445 127.1 28.2C126.29 27.6217 125.52 26.9868 124.8 26.3C124.08 25.6047 123.45 24.8335 122.9 24C122.32 23.1441 121.82 22.2408 121.4 21.3C121.07 20.3506 120.81 19.3821 120.6 18.4C120.2 16.4198 120.2 14.3801 120.6 12.4C120.81 11.4178 121.07 10.4493 121.4 9.5C121.82 8.5591 122.32 7.6558 122.9 6.8C123.45 5.9664 124.08 5.1952 124.8 4.5C125.5 3.7848 126.27 3.1477 127.1 2.6C127.93 2.0168 128.84 1.5461 129.8 1.2C130.73 0.795703 131.7 0.493902 132.7 0.300002C134.68 -0.0986984 136.72 -0.0986984 138.7 0.300002C139.7 0.493902 140.67 0.795703 141.6 1.2C142.57 1.5248 143.48 1.997 144.3 2.6C145.13 3.1477 145.9 3.7848 146.6 4.5C147.32 5.1952 147.95 5.9664 148.5 6.8C149.08 7.6558 149.58 8.5591 150 9.5C150.4 10.4311 150.71 11.4035 150.9 12.4C151 13.4 151.1 14.4 151.1 15.4Z" fill="white"/>
<path d="M29.7 29.0999C49.3 27.1999 69 25.5999 88.7 23.9999C93.6 24.0999 98.5 23.4999 103.2 24.7999C106.2 25.5999 109.3 28.0999 109.2 31.4999C109.1 34.8999 105.2 37.1999 102 37.7999C88.3 39.4999 74.6 37.3999 60.9 36.0999L24.7 32.1999C22.408 32.0699 20.132 31.7353 17.9 31.1999C21.6 29.5999 25.7 29.5999 29.7 29.0999Z" fill="white"/>
<path d="M142.8 44.3C142.2 40.3 146.2 37.3 149.8 37.3C153.4 37.3 158.7 42.4001 160.9 46.7001C163.4 52.6 165.8 58.5001 166.8 64.9001C167.3 69.1001 166.4 73.8 163.1 76.7C157.2 81.7 149.5 83.7 142 85C134.5 86.3 129.7 86.8 123.5 86.8C123.7 85 125.6 84.6 127 83.9C136.3 80.3 145.8 76.5 153.8 70.3C154.5 69.6001 155.7 68.9001 155.2 67.8001C154.1 64.7001 152 62.2001 150.4 59.4001C147.6 54.5001 143.9 49.9 142.8 44.3Z" fill="white"/>
<path d="M86.9001 70.3C90.0001 69.0001 93.9 69.1001 96.6 71.2C99.3 73.3 98.2 75 97.6 76.8C95.6 83.5 91.3 89.1 86.8 94.2C82.3 99.3 78.1001 103.6 73.4001 107.9C71.0001 110 68.5 112.3 65.2 112.9C63.726 113.272 62.169 113.115 60.799 112.457C59.428 111.799 58.332 110.682 57.7 109.3C57.3 106.3 58.4 103.3 59.8 100.6C62.441 95.621 65.59 90.93 69.2 86.6C74.3 80.4 79.6001 73.9 86.9001 70.3Z" fill="white"/>
<path d="M103.7 84.1C107.3 82.4 112.3 82.1 115.4 85.1C118.5 88.1 116.8 91.3 115.8 94.2C113.68 99.687 110.67 104.788 106.9 109.3C87.0001 132.4 64.1001 152.7 42.0001 173.7C41.4771 174.188 40.908 174.623 40.3 175C41.6 171.1 44.0001 167.8 46.0001 164.3C59.9001 142 73.8001 119.9 89.0001 98.5C93.3001 93.2 97.4 87.3 103.7 84.1Z" fill="white"/>
</svg>
