<svg width="208" height="171" viewBox="0 0 208 171" fill="none" xmlns="http://www.w3.org/2000/svg">
<mask id="mask0_1_41" style="mask-type:luminance" maskUnits="userSpaceOnUse" x="0" y="0" width="208" height="171">
<path d="M208 0H0V171H208V0Z" fill="white"/>
</mask>
<g mask="url(#mask0_1_41)">
<path d="M53.9101 152.296C53.9101 153.33 53.8201 154.364 53.6501 155.384C53.4601 156.409 53.1701 157.414 52.7901 158.387C52.3601 159.329 51.87 160.246 51.33 161.133C50.72 161.971 50.06 162.774 49.36 163.535C48.6 164.239 47.8 164.898 46.96 165.509C46.09 166.079 45.17 166.567 44.21 166.967C43.24 167.372 42.23 167.687 41.21 167.911C39.16 168.255 37.0701 168.255 35.0201 167.911C34.0001 167.687 32.9901 167.372 32.0201 166.967C31.0601 166.567 30.1401 166.079 29.2701 165.509C28.4301 164.898 27.63 164.239 26.87 163.535C26.16 162.774 25.5101 161.971 24.8901 161.133C24.3201 160.265 23.84 159.346 23.44 158.387C23.06 157.414 22.77 156.409 22.58 155.384C22.23 153.34 22.23 151.252 22.58 149.207C22.77 148.182 23.06 147.177 23.44 146.204C23.84 145.245 24.3201 144.326 24.8901 143.458C25.5101 142.62 26.16 141.817 26.87 141.056C27.63 140.352 28.4301 139.693 29.2701 139.082C30.1401 138.512 31.0601 138.024 32.0201 137.624C32.9901 137.22 34.0001 136.904 35.0201 136.68C37.0701 136.336 39.16 136.336 41.21 136.68C42.23 136.904 43.24 137.22 44.21 137.624C45.17 138.024 46.09 138.512 46.96 139.082C47.8 139.693 48.6 140.352 49.36 141.056C50.06 141.817 50.72 142.62 51.33 143.458C51.87 144.345 52.3601 145.262 52.7901 146.204C53.1701 147.177 53.4601 148.182 53.6501 149.207C53.8201 150.227 53.9101 151.261 53.9101 152.296Z" fill="white"/>
<path d="M168.08 15.5298C168.08 16.5077 167.99 17.4835 167.83 18.447C167.59 19.3776 167.3 20.2942 166.97 21.1927C166.58 22.0862 166.12 22.947 165.59 23.7667C165.03 24.5926 164.4 25.3677 163.7 26.0833C163.01 26.777 162.23 27.3821 161.39 27.8851C160.61 28.4757 159.74 28.9391 158.81 29.2579C157.94 29.672 157.02 29.9609 156.06 30.1159C155.08 30.3572 154.07 30.4725 153.06 30.4591C152.08 30.4671 151.1 30.3518 150.14 30.1159C149.19 29.9609 148.26 29.672 147.39 29.2579C146.47 28.9391 145.6 28.4757 144.82 27.8851C143.97 27.3821 143.2 26.777 142.5 26.0833C141.81 25.3677 141.17 24.5926 140.61 23.7667C140.09 22.947 139.63 22.0862 139.24 21.1927C138.9 20.2942 138.62 19.3776 138.38 18.447C138.21 17.4835 138.13 16.5077 138.12 15.5298C138.12 14.5516 138.21 13.5752 138.38 12.6126C138.62 11.654 138.9 10.7088 139.24 9.78119C139.63 8.88769 140.09 8.02688 140.61 7.20718C141.17 6.40798 141.81 5.66138 142.5 4.97638C143.17 4.23128 143.95 3.59448 144.82 3.08878C145.6 2.49818 146.47 2.03478 147.39 1.71598C148.26 1.30188 149.19 1.01299 150.14 0.857986L153.06 0.600586C154.07 0.601086 155.07 0.687286 156.06 0.857986C157.02 1.01299 157.94 1.30188 158.81 1.71598C159.74 2.03478 160.61 2.49818 161.39 3.08878C162.25 3.59448 163.03 4.23128 163.7 4.97638C164.4 5.66138 165.03 6.40798 165.59 7.20718C166.12 8.02688 166.58 8.88769 166.97 9.78119C167.3 10.7088 167.59 11.654 167.83 12.6126C168 13.5752 168.09 14.5516 168.08 15.5298Z" fill="white"/>
<path d="M50.22 28.743C69.28 26.9412 88.4201 25.3968 107.56 23.8524C112.2 23.9382 117.01 23.3376 121.56 24.6246C124.47 25.3968 127.48 27.885 127.31 31.1455C127.13 34.4059 123.53 36.6367 120.44 37.2373C107.13 38.8675 93.83 36.8083 80.52 35.6071L45.41 31.8319C43.19 31.6921 40.98 31.3765 38.8 30.8881C42.32 29.2578 46.36 29.2578 50.22 28.743Z" fill="white"/>
<path d="M159.93 43.5006C159.41 39.7254 163.28 36.7224 166.79 36.7224C171.69 37.4946 175.38 41.613 177.53 45.903C180.01 51.5659 182.33 57.314 183.28 63.406C183.79 67.525 182.85 72.072 179.67 74.989C174.01 79.794 166.45 81.682 159.24 82.969C153.28 83.969 147.26 84.543 141.21 84.685C141.47 82.969 143.36 82.54 144.65 81.939C153.75 78.421 162.93 74.732 170.66 68.726C171.34 68.125 172.46 67.353 171.95 66.324C170.92 63.321 168.86 60.832 167.4 58.087C164.65 53.3677 161.04 48.9919 159.93 43.5006Z" fill="white"/>
<path d="M105.76 68.726C107.28 68.045 108.95 67.774 110.61 67.939C112.26 68.105 113.85 68.702 115.2 69.67C116.75 70.957 116.66 73.273 116.15 75.075C114.17 81.51 110.05 86.916 105.67 91.892C101.3 96.868 97.26 100.987 92.71 105.105C90.31 107.165 87.9 109.481 84.73 110.082C83.29 110.419 81.78 110.254 80.46 109.614C79.13 108.973 78.0601 107.897 77.4301 106.564C77.0001 103.561 78.1201 100.729 79.4101 98.07C82.0001 93.249 85.07 88.707 88.59 84.513C93.57 78.593 98.72 72.244 105.76 68.726Z" fill="white"/>
<path d="M33.65 38.6102C35.8 36.98 39.06 38.9534 38.89 41.6132C39.14 57.057 38.7201 72.501 39.0601 88.031H74.4301C76.9201 87.688 79.23 90.348 78.2 92.664C77.17 94.981 75.89 94.809 74.34 94.895C62.24 94.981 50.13 94.724 38.03 94.981C25.58 116.517 13.13 138.139 0.599976 159.674V145.861C10.39 129.044 20 112.227 29.79 95.41C30.82 93.608 32.28 91.806 32.11 89.661C32.02 74.046 32.11 58.43 32.02 42.8144C32.02 41.27 32.19 39.554 33.65 38.6102Z" fill="white"/>
<path d="M137.87 91.635C137.61 89.49 139.84 87.86 141.9 88.031H207.48V94.895H141.99C140.01 95.067 137.95 93.694 137.87 91.635Z" fill="white"/>
<path d="M122.07 82.1109C125.59 80.3949 130.4 80.1369 133.4 83.0549C136.41 85.9719 134.78 89.0609 133.83 91.8919C131.74 97.2119 128.81 102.165 125.16 106.564C105.85 128.958 83.61 148.606 62.24 169.027L60.52 170.228C61.81 166.453 64.13 163.278 66.1 159.846C79.49 138.224 93.05 116.774 107.73 96.0959C111.94 90.9479 115.98 85.1999 122.07 82.1109Z" fill="white"/>
</g>
</svg>
