<svg width="148" height="204" viewBox="0 0 148 204" fill="none" xmlns="http://www.w3.org/2000/svg">
<path d="M143.687 3.4651C144.827 2.32698 145.879 0.926224 147.633 0.663574C144.652 6.96702 139.566 11.8697 135.708 17.6478C121.592 37.4337 107.914 57.6572 92.132 76.3049C88.888 80.5072 83.101 82.9585 77.84 81.4702C73.895 79.8068 73.719 74.4664 75.385 71.052C84.767 54.593 98.883 41.5484 113.262 29.3793L143.687 3.4651Z" fill="white"/>
<path d="M0.946045 1.45117C4.80305 3.37722 7.52102 6.96668 10.766 9.8558C26.899 25.1766 44.259 39.1843 59.691 55.2931C63.373 59.3203 67.582 62.9973 69.598 68.0751C70.826 71.3143 71.703 74.9038 70.563 78.2306C70.162 79.3737 69.395 80.3531 68.38 81.0177C67.366 81.6823 66.161 81.995 64.951 81.9076C62.935 82.1702 61.532 80.4193 59.954 79.3687C44.347 67.2871 33.387 50.653 22.602 34.4567C16.465 24.914 9.97703 15.6339 3.66403 6.17875C2.69903 4.60289 1.03304 3.37722 0.946045 1.45117Z" fill="white"/>
<path d="M67.494 135.049C68.076 133.541 69.006 132.192 70.21 131.111C71.414 130.031 72.857 129.25 74.421 128.833C75.633 128.934 76.8 129.341 77.812 130.014C78.824 130.688 79.648 131.607 80.208 132.686C81.873 135.837 81.435 139.427 81.435 142.841C80.646 162.452 79.331 182.063 76.963 201.498C76.951 201.844 76.835 202.178 76.633 202.459C76.43 202.739 76.148 202.953 75.824 203.074C73.544 193.006 71.878 182.85 70.124 172.695C68.371 162.539 67.056 153.259 66.354 143.366C66.296 140.552 66.68 137.745 67.494 135.049Z" fill="white"/>
<path d="M97.6561 130.672C100.269 130.401 102.909 130.779 105.341 131.772C107.773 132.764 109.922 134.341 111.597 136.363C113.876 138.901 114.841 142.316 115.279 145.73C115.194 148.511 114.401 151.224 112.974 153.614C111.547 156.003 109.534 157.991 107.125 159.388C105.148 160.482 102.96 161.141 100.707 161.322C98.4531 161.504 96.1881 161.202 94.0611 160.438C86.9591 158.25 82.1361 150.195 83.8901 142.929C84.6201 139.708 86.3391 136.796 88.8071 134.599C91.2741 132.401 94.3681 131.028 97.6561 130.672Z" fill="white"/>
</svg>
