<svg width="132" height="273" viewBox="0 0 132 273" fill="none" xmlns="http://www.w3.org/2000/svg">
<mask id="mask0_3_143" style="mask-type:luminance" maskUnits="userSpaceOnUse" x="0" y="0" width="132" height="198">
<path d="M131.5 0H0V197.9H131.5V0Z" fill="white"/>
</mask>
<g mask="url(#mask0_3_143)">
<path d="M50.6001 9.5002C56.1001 6.5002 62.4001 5.4002 68.6001 4.7002C67.3001 6.9002 64.7001 7.80019 62.7001 9.30019C56.9001 13.4002 50.5001 17.2002 46.4001 23.2002C43.5001 27.5002 42.7001 33.6002 46.1001 37.9002C50.7001 43.5002 59.1001 44.4002 63.5001 50.3002C65.0001 52.6002 66.5001 56.1002 64.4001 58.4002C61.8001 60.8002 57.8001 60.3002 54.6001 59.7002C47.6001 57.8002 41.9001 52.5002 38.0001 46.5002C34.4001 40.3002 32.0001 32.5002 34.6001 25.4002C37.5001 18.3002 43.9001 13.1002 50.6001 9.5002Z" fill="white"/>
<path d="M91.5 27.6001C96.5 27.1001 101.9 29.2001 105 33.2001C107.2 35.7001 108.2 39.0001 108.6 42.3001C108.4 47.3001 105.9 52.1001 101.7 54.9001C97.7 57.4001 92.5 58.2001 88 56.6001C81.2 54.4001 76.6 47.0001 77.9 40.0001C79.1 33.5001 84.8 28.3001 91.5 27.6001Z" fill="white"/>
<path d="M98.4999 73C99.6999 71.5 101.5 70.2 103.5 70.5C107.2 70.6 110.4 72.6 113.3 74.5C119.1 78.5 124.7 83.1 128.9 88.9C130.4 91.2 132 94 131.2 96.9C130.4 100.9 127.3 104.1 123.7 106C118.5 108.8 112.8 110.4 107 111.4C100.9 112.6 94.5999 113.8 88.3999 113.1C90.2999 111.6 92.7999 111.6 94.8999 110.5C99.8999 107.9 104.9 105.2 109.7 102.3C112.9 100.3 116.2 98.3 118.8 95.5C113.8 89.7 106.3 86.9 101.3 81C99.5999 78.9 97.2999 76 98.4999 73Z" fill="white"/>
<path d="M49.1 94.7C51.1 94.4 52.9 95.7 54.7 96.4C56.3 96.9 56.7 98.8 56.6 100.3C56.2 103.7 54.7 107 52.8 109.9C47.2 118.4 40 125.8 32.5 132.7C30.1 135.1 27.3 137.6 23.7 137.8C21.2 137.8 18.2 137.1 17.1 134.6C16 132.1 17.1 129.4 18 127.1C20.1 121.9 23.7 117.7 27 113.3C31 108 35.4 102.7 40.7 98.5C43 96.5 46 95.1 49.1 94.7Z" fill="white"/>
<path d="M63.2999 108.7C66.2999 107.4 69.8999 107.5 72.6999 109.3C74.9999 111.5 75.3999 115 74.3999 117.8C72.3999 124.3 68.2999 129.9 64.1999 135.2C56.0999 145.5 46.1999 154.2 36.8999 163.4C30.1999 169.7 23.9999 176.4 16.8999 182.2C11.8999 186.4 7.0999 190.9 2.7999 195.8C2.0999 196.8 0.999902 197.3 -0.100098 197.8C0.799902 194.5 2.9999 191.7 4.4999 188.6C15.3999 171.5 26.0999 154.3 37.2999 137.4C40.8999 132.2 44.3999 127 48.1999 122C52.2999 116.7 56.7999 111 63.2999 108.7Z" fill="white"/>
<path d="M79.2 0C85.1 0 89.9 4.8 89.9 10.6C89.9 16.5 85.1 21.2 79.2 21.2C73.3 21.2 68.5 16.4 68.5 10.6C68.6 4.8 73.3 0 79.2 0ZM79.2 4.1C75.6 4.1 72.7 7 72.7 10.6C72.7 14.2 75.6 17.1 79.2 17.1C82.8 17.1 85.7 14.2 85.7 10.6C85.7 7 82.8 4.1 79.2 4.1Z" fill="white"/>
</g>
</svg>
