<svg width="78" height="96" viewBox="0 0 78 96" fill="none" xmlns="http://www.w3.org/2000/svg">
<path d="M77.1757 17.3512C77.0389 16.9647 76.8481 16.5996 76.609 16.2668C76.3972 15.9517 76.1557 15.6577 75.8878 15.3889C75.6163 15.0885 75.3041 14.8278 74.9604 14.6143L73.93 14.0462C73.5692 13.8886 73.1874 13.7842 72.7966 13.7364C72.4106 13.6307 72.0119 13.5786 71.6117 13.5815H56.7742L56.6711 13.1167L55.1771 5.31896C55.1498 5.10706 55.098 4.89908 55.0225 4.69928C54.9767 4.50235 54.9075 4.31165 54.8164 4.13123C54.752 3.93282 54.6656 3.74227 54.5588 3.56318C54.4946 3.37053 54.3891 3.19428 54.2497 3.04678C54.1597 2.85532 54.0377 2.68067 53.8891 2.53037L53.4769 2.0656L53.0648 1.65248L52.5496 1.29099L52.0344 0.981148L51.4677 0.722945L50.901 0.516382L50.3343 0.36146L49.716 0.258179H47.8613L5.30652 8.52069L4.68829 8.67561L4.12158 8.88217L3.55487 9.14037L3.03968 9.45022L2.52449 9.8117L2.06081 10.2248C1.95081 10.3875 1.81094 10.5277 1.64866 10.638C1.5408 10.8184 1.42029 10.991 1.28803 11.1544L0.978913 11.6708C0.883344 11.8555 0.797364 12.0451 0.721317 12.2388C0.62217 12.4156 0.552558 12.6075 0.51524 12.8069L0.360683 13.4265C0.297034 13.6094 0.262269 13.801 0.257644 13.9946C0.257644 14.2012 0.206125 14.4077 0.206125 14.6143C0.197815 14.8222 0.215119 15.0303 0.257644 15.234C0.266699 15.444 0.301301 15.6521 0.360683 15.8537L13.395 84.0193C13.4626 84.368 13.5486 84.7127 13.6526 85.0522C13.804 85.3895 13.9761 85.7172 14.1678 86.0333C14.3512 86.3414 14.5579 86.6348 14.786 86.9112C15.0051 87.1906 15.2657 87.4344 15.5588 87.6342C15.8162 87.8859 16.1119 88.095 16.4347 88.2539C16.7455 88.4395 17.0733 88.5951 17.4135 88.7187L18.4439 88.9769L19.5258 89.0801L20.7107 88.9769H21.0714L21.7927 88.8219V89.5449C21.7991 89.9427 21.8335 90.3396 21.8957 90.7326C21.9924 91.1184 22.1129 91.4978 22.2563 91.8687C22.4253 92.2236 22.6145 92.5685 22.823 92.9015C23.0349 93.2166 23.2764 93.5106 23.5443 93.7794L24.4716 94.554L25.502 95.1221C25.8652 95.2731 26.2461 95.3772 26.6355 95.4319C27.0215 95.5376 27.4202 95.5897 27.8204 95.5869H71.6117C72.0119 95.5897 72.4106 95.5376 72.7966 95.4319C73.1874 95.3841 73.5692 95.2798 73.93 95.1221L74.9604 94.554C75.291 94.3421 75.6015 94.1001 75.8878 93.8311L76.609 92.9015C76.837 92.5803 77.0272 92.2337 77.1757 91.8687C77.3192 91.4978 77.4396 91.1184 77.5364 90.7326C77.5962 90.3394 77.6306 89.9426 77.6394 89.5449V19.6234C77.6285 19.2258 77.5941 18.8292 77.5364 18.4357C77.4395 18.0668 77.3191 17.7046 77.1757 17.3512ZM22.823 16.2668C22.6141 16.6174 22.4249 16.9794 22.2563 17.3512C22.113 17.7046 21.9925 18.0668 21.8957 18.4357C21.838 18.8292 21.8036 19.2258 21.7927 19.6234V87.0145L21.2775 87.1178L20.3501 87.3244H19.4743C19.1785 87.344 18.8816 87.3089 18.5985 87.2211L17.7226 86.9629L16.9499 86.5497C16.7041 86.3888 16.4791 86.198 16.2801 85.9817C16.0636 85.7638 15.8734 85.5211 15.7134 85.2587C15.5353 85.0244 15.3961 84.7629 15.3012 84.4841C15.1847 84.2014 15.0984 83.9071 15.0436 83.6062L2.0093 15.5438C1.94952 15.2373 1.91506 14.9264 1.90626 14.6143C1.91801 14.3194 1.95246 14.0259 2.0093 13.7364C2.06409 13.4522 2.15049 13.175 2.26689 12.9101C2.42145 12.6003 2.52449 12.3421 2.67904 12.0839C2.871 11.8475 3.07748 11.6232 3.29727 11.4126C3.49627 11.1962 3.72123 11.0054 3.96702 10.8445L4.73981 10.4314L5.61564 10.1732L48.1705 2.01396C48.4547 1.93128 48.7507 1.89638 49.0463 1.91068H49.8191L50.5919 2.11724C50.8468 2.20619 51.0892 2.32769 51.3131 2.47873L51.9314 2.89185C52.1453 3.05435 52.336 3.24548 52.4981 3.4599C52.6847 3.64025 52.8413 3.84948 52.9617 4.07959L53.3224 4.80256C53.4151 5.05374 53.4841 5.31308 53.5285 5.57717L54.9195 12.8069L55.074 13.5298H27.8204C27.4202 13.527 27.0215 13.5791 26.6355 13.6848C26.2461 13.7394 25.8652 13.8436 25.502 13.9946L24.4716 14.5626C24.1379 14.7896 23.8272 15.0491 23.5443 15.3373C23.2738 15.6224 23.0321 15.9338 22.823 16.2668ZM75.9393 89.4933C75.9478 89.7697 75.9306 90.0463 75.8878 90.3195C75.833 90.6037 75.7466 90.8809 75.6302 91.1458C75.5131 91.4143 75.3753 91.6733 75.218 91.9204L74.7028 92.5401L74.0331 93.1081L73.2603 93.5212L72.4875 93.7278L71.6117 93.8311H27.8204L26.9446 93.7278C26.6735 93.6892 26.4117 93.6017 26.1718 93.4696L25.399 93.1081L24.7292 92.5401L24.2141 91.9204C24.0568 91.6733 23.919 91.4143 23.8019 91.1458C23.7031 90.8788 23.634 90.6017 23.5958 90.3195C23.5072 90.0536 23.4722 89.7728 23.4928 89.4933V19.8816C23.4756 19.5682 23.5105 19.2541 23.5958 18.9521C23.6337 18.6639 23.7208 18.3844 23.8534 18.1259C23.9594 17.852 24.0977 17.592 24.2656 17.3512C24.4256 17.0888 24.6158 16.8462 24.8323 16.6283C25.0313 16.4119 25.2562 16.2211 25.502 16.0602L26.2748 15.6471L27.1506 15.3889L28.0265 15.2856H71.6117L72.4875 15.3889L73.2603 15.6471C73.5355 15.7255 73.7964 15.8475 74.0331 16.0086C74.2789 16.1695 74.5038 16.3603 74.7028 16.5766C74.9026 16.7773 75.0757 17.003 75.218 17.248C75.3853 17.4706 75.5237 17.7135 75.6302 17.9709C75.7466 18.2358 75.833 18.513 75.8878 18.7972C75.9306 19.0704 75.9478 19.347 75.9393 19.6234V89.4933Z" fill="url(#paint0_linear_562_26)"/>
<path fill-rule="evenodd" clip-rule="evenodd" d="M58.6289 56.3916L56.259 52.2087L52.086 54.6359L39.5668 61.8655C39.0155 62.1811 38.5322 62.6032 38.1451 63.1076C37.758 63.6119 37.4747 64.1883 37.3117 64.8033C37.1487 65.4183 37.1093 66.0597 37.1957 66.6901C37.2822 67.3205 37.4927 67.9274 37.8152 68.4756L40.185 72.6584L44.3581 70.2313L56.8772 63.0016C57.4286 62.6861 57.9118 62.264 58.299 61.7596C58.6861 61.2553 58.9694 60.6789 59.1324 60.0639C59.2953 59.4489 59.3348 58.8075 59.2483 58.1771C59.1619 57.5467 58.9513 56.9398 58.6289 56.3916Z" fill="url(#paint1_linear_562_26)"/>
<path fill-rule="evenodd" clip-rule="evenodd" d="M62.2352 37.646L59.3502 32.6368L54.3528 35.5287L39.3092 44.2044C38.6529 44.5841 38.0777 45.0897 37.6164 45.6923C37.155 46.2949 36.8166 46.9827 36.6205 47.7163C36.4243 48.45 36.3743 49.2153 36.4732 49.9683C36.5721 50.7214 36.818 51.4476 37.1969 52.1054L40.082 57.1145L45.0794 54.2226L60.1229 45.547C61.438 44.7705 62.3963 43.5073 62.7914 42.0296C63.1865 40.5518 62.9867 38.9776 62.2352 37.646Z" fill="url(#paint2_linear_562_26)"/>
<path fill-rule="evenodd" clip-rule="evenodd" d="M51.9313 50.298L40.0819 57.1145L44.4095 59.0769L56.2589 52.2087L51.9313 50.298Z" fill="url(#paint3_linear_562_26)"/>
<defs>
<linearGradient id="paint0_linear_562_26" x1="7.98556" y1="4.95728" x2="78.0066" y2="99.3019" gradientUnits="userSpaceOnUse">
<stop stop-color="#24C2EE"/>
<stop offset="1" stop-color="#682CA4"/>
</linearGradient>
<linearGradient id="paint1_linear_562_26" x1="62.3383" y1="64.8607" x2="33.9045" y2="77.2774" gradientUnits="userSpaceOnUse">
<stop stop-color="#6A65D4"/>
<stop offset="1" stop-color="#58B0EF"/>
</linearGradient>
<linearGradient id="paint2_linear_562_26" x1="59.5048" y1="59.6968" x2="25.8138" y2="51.9121" gradientUnits="userSpaceOnUse">
<stop stop-color="#6769D5"/>
<stop offset="1" stop-color="#57B3F0"/>
</linearGradient>
<linearGradient id="paint3_linear_562_26" x1="45.5946" y1="47.0442" x2="53.8599" y2="56.3193" gradientUnits="userSpaceOnUse">
<stop stop-color="#5FA1D7"/>
<stop offset="1" stop-color="#4148CC"/>
</linearGradient>
</defs>
</svg>
