<svg width="71" height="64" viewBox="0 0 71 64" fill="none" xmlns="http://www.w3.org/2000/svg">
<mask id="mask0_560_61062" style="mask-type:luminance" maskUnits="userSpaceOnUse" x="0" y="0" width="71" height="65">
<path d="M61.8384 64.0001H8.25259C6.06044 63.989 3.96144 63.0032 2.41485 61.2583C0.868251 59.5135 -2.22389e-05 57.1516 1.3559e-09 54.6895L1.3559e-09 6.33303C-1.63058e-05 5.49785 0.14706 4.6709 0.43276 3.89981C0.718461 3.12873 1.13714 2.42872 1.6647 1.84011C2.19226 1.25149 2.81827 0.785892 3.5067 0.470111C4.19513 0.15433 4.93237 -0.00539216 5.67599 0.000138887H58.2162C59.7216 0.000138887 61.1653 0.671771 62.2298 1.86728C63.2942 3.0628 63.8922 4.68426 63.8922 6.37497V11.5336C64.7143 11.5335 65.5283 11.7161 66.2873 12.0707C67.0464 12.4253 67.7355 12.9449 68.3151 13.5998C68.8946 14.2546 69.3532 15.0317 69.6644 15.8863C69.9756 16.7409 70.1332 17.6561 70.1283 18.5794V26.4222V54.6895C70.1185 57.1554 69.242 59.5172 67.6894 61.2609C66.1369 63.0046 64.034 63.9891 61.8384 64.0001ZM1.08292 10.1076V54.6895C1.08289 56.829 1.83707 58.8815 3.18058 60.3983C4.5241 61.9151 6.34765 62.7728 8.25259 62.7839H61.8384C63.7498 62.7839 65.5829 61.9311 66.9345 60.4131C68.2861 58.8951 69.0454 56.8363 69.0454 54.6895V44.2046H53.6605C51.551 44.2046 49.5279 43.2634 48.0363 41.5881C46.5446 39.9128 45.7066 37.6407 45.7066 35.2714V34.7682C45.7066 32.3989 46.5446 30.1268 48.0363 28.4515C49.5279 26.7762 51.551 25.835 53.6605 25.835H69.0454V18.5794C69.058 17.8163 68.932 17.0584 68.6752 16.3517C68.4184 15.6451 68.0361 15.0046 67.5517 14.4693C66.5827 13.3746 65.2666 12.7562 63.8922 12.7498H5.67599C4.77897 12.7484 3.89502 12.5081 3.09664 12.0489C2.29825 11.5896 1.60815 10.9243 1.08292 10.1076ZM5.67599 1.21639C4.45783 1.21639 3.28957 1.75988 2.4282 2.7273C1.56683 3.69473 1.08292 5.00683 1.08292 6.37497C1.08292 7.74312 1.56683 9.05522 2.4282 10.0226C3.28957 10.9901 4.45783 11.5336 5.67599 11.5336H62.8093V6.37497C62.8093 5.00683 62.3254 3.69473 61.464 2.7273C60.6026 1.75988 59.4344 1.21639 58.2162 1.21639H5.67599ZM69.0454 42.9883V27.0513H53.6605C52.7551 27.0457 51.8576 27.2412 51.0196 27.6266C50.1817 28.0119 49.4198 28.5795 48.7779 29.2966C48.1359 30.0137 47.6264 30.8663 47.2788 31.8053C46.9312 32.7443 46.7522 33.7512 46.7522 34.7682V35.2714C46.7621 37.3219 47.4943 39.2847 48.7888 40.7307C50.0832 42.1767 51.8348 42.9884 53.6605 42.9883H69.0454ZM57.9175 31.9582C57.5353 31.9077 57.1478 31.9487 56.7807 32.0784C56.4136 32.2082 56.0751 32.4237 55.7875 32.711C55.4999 32.9982 55.2698 33.3506 55.1121 33.7449C54.9545 34.1392 54.873 34.5666 54.873 34.9988C54.873 35.4311 54.9545 35.8584 55.1121 36.2527C55.2698 36.6471 55.4999 36.9994 55.7875 37.2867C56.0751 37.5739 56.4136 37.7895 56.7807 37.9192C57.1478 38.049 57.5353 38.09 57.9175 38.0395C58.6306 38.0395 59.3144 37.7213 59.8186 37.155C60.3228 36.5887 60.6061 35.8207 60.6061 35.0198C60.6062 34.215 60.3241 33.4426 59.8209 32.8696C59.3178 32.2966 58.634 31.9692 57.9175 31.9582ZM57.9175 39.2557C57.161 39.264 56.4195 39.0191 55.7874 38.5523C55.1554 38.0854 54.6614 37.4177 54.3685 36.6344C54.0756 35.851 53.997 34.9874 54.1428 34.1537C54.2886 33.32 54.6521 32.5539 55.187 31.9532C55.722 31.3524 56.404 30.9441 57.1464 30.7804C57.8887 30.6167 58.6576 30.7049 59.3551 31.0339C60.0526 31.3628 60.647 31.9176 61.0627 32.6275C61.4784 33.3374 61.6964 34.1702 61.689 35.0198C61.689 36.1432 61.2917 37.2206 60.5844 38.015C59.8771 38.8094 58.9178 39.2557 57.9175 39.2557Z" fill="white"/>
</mask>
<g mask="url(#mask0_560_61062)">
<path d="M0 0V64H70.1283V0H0Z" fill="url(#paint0_linear_560_61062)"/>
</g>
<path fill-rule="evenodd" clip-rule="evenodd" d="M35.7608 40.4296L33.8503 37.0325L30.486 39.0036L20.3934 44.8752C19.9489 45.1314 19.5593 45.4743 19.2472 45.8839C18.9351 46.2935 18.7068 46.7616 18.5754 47.2611C18.444 47.7606 18.4122 48.2814 18.4819 48.7934C18.5516 49.3054 18.7213 49.7983 18.9813 50.2435L20.8918 53.6406L24.256 51.6694L34.3487 45.7979C34.7931 45.5416 35.1827 45.1988 35.4948 44.7892C35.8069 44.3796 36.0353 43.9115 36.1667 43.412C36.2981 42.9125 36.3299 42.3916 36.2602 41.8796C36.1905 41.3677 36.0208 40.8748 35.7608 40.4296Z" fill="url(#paint1_linear_560_61062)"/>
<path fill-rule="evenodd" clip-rule="evenodd" d="M38.6679 25.2061L36.3421 21.1379L32.3133 23.4866L20.1855 30.5324C19.6564 30.8408 19.1927 31.2515 18.8208 31.7409C18.4488 32.2302 18.176 32.7888 18.0179 33.3847C17.8598 33.9805 17.8194 34.602 17.8992 35.2136C17.9789 35.8252 18.1772 36.415 18.4826 36.9492L20.8085 41.0174L24.8373 38.6687L36.9651 31.6229C38.0253 30.9922 38.7978 29.9664 39.1163 28.7662C39.4348 27.566 39.2738 26.2876 38.6679 25.2061Z" fill="url(#paint2_linear_560_61062)"/>
<path fill-rule="evenodd" clip-rule="evenodd" d="M30.3609 35.4824L20.8082 41.0185L24.297 42.6122L33.8498 37.0342L30.3609 35.4824Z" fill="url(#paint3_linear_560_61062)"/>
<defs>
<linearGradient id="paint0_linear_560_61062" x1="-1.00978e-06" y1="0.167924" x2="75.1797" y2="57.9864" gradientUnits="userSpaceOnUse">
<stop stop-color="#24C2EE"/>
<stop offset="1" stop-color="#682CA4"/>
</linearGradient>
<linearGradient id="paint1_linear_560_61062" x1="38.7512" y1="47.3077" x2="15.7747" y2="57.2675" gradientUnits="userSpaceOnUse">
<stop stop-color="#6A65D4"/>
<stop offset="1" stop-color="#58B0EF"/>
</linearGradient>
<linearGradient id="paint2_linear_560_61062" x1="36.4667" y1="43.1145" x2="9.28563" y2="36.8802" gradientUnits="userSpaceOnUse">
<stop stop-color="#6769D5"/>
<stop offset="1" stop-color="#57B3F0"/>
</linearGradient>
<linearGradient id="paint3_linear_560_61062" x1="25.2524" y1="32.8399" x2="31.9706" y2="40.3234" gradientUnits="userSpaceOnUse">
<stop stop-color="#5FA1D7"/>
<stop offset="1" stop-color="#4148CC"/>
</linearGradient>
</defs>
</svg>
