<svg width="78" height="74" viewBox="0 0 78 74" fill="none" xmlns="http://www.w3.org/2000/svg">
<path d="M63.5366 30.2338C62.5243 30.2371 61.5188 30.0652 60.5624 29.7254C56.4061 28.3564 52.6693 24.1714 47.4835 18.422L45.6914 16.4273C42.6409 13.0636 39.5905 11.6165 36.6163 12.164C30.5535 13.2201 26.7786 22.2158 26.7404 22.2941L26.1304 23.7021L26.0541 22.1767C25.3296 9.85643 30.9729 6.29723 34.4428 5.28032C41.3064 3.20738 50.2289 7.74438 54.3089 15.3321C57.9695 22.0594 63.4984 23.9759 67.5021 24.4061C70.1805 24.654 72.8806 24.4023 75.4715 23.663L77.2636 23.0372L75.7765 24.2888C70.7814 28.3955 67.0065 30.2338 63.5366 30.2338ZM37.8365 11.3427C40.62 11.3427 43.4036 12.8681 46.1871 15.9579L47.9792 17.9135C53.1269 23.6239 56.8256 27.7306 60.7911 29.0604C64.7567 30.3903 68.5317 29.0213 74.0606 24.7581C71.8904 25.206 69.6678 25.3246 67.464 25.1101C63.2696 24.6799 57.4738 22.6852 53.6988 15.6841C49.9239 8.68307 41.192 3.98962 34.6335 5.94522C31.5449 6.88391 26.4735 10.0129 26.7023 20.7296C28.075 18.0308 31.5449 12.3205 36.5019 11.46C36.9427 11.3822 37.3892 11.3429 37.8365 11.3427Z" fill="url(#paint0_linear_560_61053)"/>
<path d="M71.0107 73.9992L69.7143 71.8871C69.638 71.7698 62.5076 60.1535 54.462 51.6662C52.3666 49.5054 49.6521 48.0891 46.7156 47.6247C43.779 47.1602 40.7747 47.6718 38.142 49.0848C30.8591 52.8395 19.0004 56.0467 3.71003 49.9061L0.73584 48.7328L3.90069 49.2021C4.05321 49.2412 20.2588 51.7053 31.6598 42.9833C37.7226 38.329 41.4213 31.367 42.6033 22.2539L43.0609 18.9685L43.2897 22.293C43.3278 22.4104 44.4717 35.6302 55.2246 42.4749C63.804 47.9505 70.2862 71.3787 70.3625 71.6133L71.0107 73.9992ZM44.6624 46.7381C46.5797 46.7291 48.4791 47.1158 50.2478 47.8751C52.0164 48.6343 53.6182 49.7507 54.9577 51.1577C60.9823 57.4939 66.4732 65.551 68.9517 69.3839C67.0832 63.3998 61.5924 47.403 54.8433 43.1006C46.5308 37.7814 43.7854 28.7465 42.9465 24.5615C41.4594 32.8142 37.7989 39.1894 32.0793 43.57C23.2711 50.2973 11.7937 50.4928 6.53171 50.1799C11.0472 51.7791 15.7869 52.6114 20.5638 52.644C26.5654 52.6499 32.4836 51.2026 37.837 48.4199C39.9537 47.3226 42.2907 46.7467 44.6624 46.7381Z" fill="url(#paint1_linear_560_61053)"/>
<path d="M58.0463 12.3594C56.8547 12.3594 55.6899 11.997 54.6991 11.3179C53.7084 10.6389 52.9362 9.67377 52.4802 8.54458C52.0242 7.41538 51.9049 6.17285 52.1374 4.97411C52.3698 3.77536 52.9436 2.67424 53.7862 1.81C54.6287 0.945749 55.7022 0.357189 56.8709 0.118744C58.0396 -0.119701 59.2509 0.00267759 60.3518 0.470405C61.4527 0.938132 62.3936 1.7302 63.0556 2.74645C63.7176 3.76269 64.0709 4.95748 64.0709 6.17971C64.0709 7.81867 63.4362 9.3905 62.3063 10.5494C61.1765 11.7083 59.6441 12.3594 58.0463 12.3594ZM58.0463 0.743132C56.9888 0.743159 55.9552 1.06531 55.0765 1.66874C54.1978 2.27216 53.5137 3.12967 53.1108 4.1325C52.7079 5.13533 52.6044 6.23831 52.8135 7.30154C53.0226 8.36477 53.5348 9.34036 54.2852 10.1046C55.0356 10.8688 55.9903 11.3872 57.0284 11.594C58.0664 11.8009 59.1409 11.6868 60.1157 11.2664C61.0905 10.8459 61.9215 10.138 62.5035 9.23242C63.0855 8.32682 63.3921 7.26433 63.3846 6.17971C63.3745 4.73425 62.8076 3.35152 61.8076 2.33307C60.8075 1.31462 59.4555 0.743095 58.0463 0.743132Z" fill="url(#paint2_linear_560_61053)"/>
<defs>
<linearGradient id="paint0_linear_560_61053" x1="75.5519" y1="39.3964" x2="26.9888" y2="-6.1664" gradientUnits="userSpaceOnUse">
<stop stop-color="#682CA4"/>
<stop offset="1" stop-color="#24C2EE"/>
</linearGradient>
<linearGradient id="paint1_linear_560_61053" x1="68.6647" y1="93.807" x2="-23.7776" y2="38.819" gradientUnits="userSpaceOnUse">
<stop stop-color="#682CA4"/>
<stop offset="1" stop-color="#24C2EE"/>
</linearGradient>
<linearGradient id="paint2_linear_560_61053" x1="63.6687" y1="16.8081" x2="45.8789" y2="8.72949" gradientUnits="userSpaceOnUse">
<stop stop-color="#682CA4"/>
<stop offset="1" stop-color="#24C2EE"/>
</linearGradient>
</defs>
</svg>
