<svg width="16" height="16" viewBox="0 0 16 16" fill="none" xmlns="http://www.w3.org/2000/svg">
<path d="M14.6673 4H10.0007C8.93979 4 7.92237 4.42143 7.17222 5.17157C6.42208 5.92172 6.00065 6.93913 6.00065 8C6.00065 9.06087 6.42208 10.0783 7.17222 10.8284C7.92237 11.5786 8.93979 12 10.0007 12H14.6673V13.3333C14.6673 13.5101 14.5971 13.6797 14.4721 13.8047C14.347 13.9298 14.1775 14 14.0007 14H2.00065C1.82384 14 1.65427 13.9298 1.52925 13.8047C1.40422 13.6797 1.33398 13.5101 1.33398 13.3333V2.66667C1.33398 2.48986 1.40422 2.32029 1.52925 2.19526C1.65427 2.07024 1.82384 2 2.00065 2H14.0007C14.1775 2 14.347 2.07024 14.4721 2.19526C14.5971 2.32029 14.6673 2.48986 14.6673 2.66667V4ZM10.0007 5.33333H15.334V10.6667H10.0007C9.29341 10.6667 8.61513 10.3857 8.11503 9.88562C7.61494 9.38552 7.33398 8.70724 7.33398 8C7.33398 7.29276 7.61494 6.61448 8.11503 6.11438C8.61513 5.61428 9.29341 5.33333 10.0007 5.33333ZM10.0007 7.33333V8.66667H12.0007V7.33333H10.0007Z" fill="white"/>
</svg>
