<svg width="185" height="199" viewBox="0 0 185 199" fill="none" xmlns="http://www.w3.org/2000/svg">
<path d="M103.32 6.02435C103.85 4.02855 103.76 1.68565 105.33 0.210449C106.46 7.32595 106.11 14.7017 107.77 21.7303C108.81 27.0235 111.25 31.7961 113.43 36.7421C115.61 41.6882 117.87 46.8078 121.18 51.32C126.15 58.8693 132.86 65.2037 138.95 71.8853C142.53 75.6165 146.27 79.9553 146.1 85.422C146.22 86.7911 145.89 88.1621 145.17 89.334C144.45 90.505 143.37 91.4151 142.09 91.9301C138.43 92.7111 135.03 90.7151 132.16 88.8062C123.97 83.4262 118.39 75.0959 113.6 66.8524C107.14 55.216 103.36 42.2921 102.54 29.0192C102.1 21.3832 101.49 13.5735 103.32 6.02435Z" fill="white"/>
<path d="M170.4 15.3957C173.25 12.0407 176.46 9.01365 179.99 6.37125L181.2 6.19775C177.28 13.2264 172.14 19.5609 169.27 27.1969C166.4 34.833 166.13 40.9071 164.39 47.7622C162.13 59.2163 163.87 70.9307 165.35 82.4716C166.05 87.4176 166.92 92.884 164.39 97.483C162.82 100.52 159.25 102.69 155.85 101.648C152.46 100.607 151.59 97.223 150.28 94.446C146.79 85.1615 146.79 75.0958 147.93 65.3772C149.06 55.6586 151.76 46.1135 156.2 37.3494C160.65 28.5853 165.26 22.4244 170.4 15.3957Z" fill="white"/>
<path d="M82.3299 35.5273C88.6899 34.7464 95.4799 38.1305 98.1799 43.9443C102.54 51.4936 98.53 62.08 90.52 65.2906C87.98 66.3529 85.21 66.7435 82.48 66.4241C79.75 66.1048 77.14 65.0865 74.92 63.4683C69.87 59.5635 67.2599 52.5349 69.4399 46.374C70.3399 43.5403 72.0301 41.0189 74.3101 39.1C76.59 37.1811 79.3699 35.9427 82.3299 35.5273Z" fill="white"/>
<path d="M56.19 59.2163C58.63 58.5221 61.2501 58.3486 63.5101 59.737C65.7801 61.1253 69.6101 65.2037 72.1401 68.4143L79.8901 78.6536C85.1001 84.8147 91.07 90.296 97.66 94.967C103.5 98.611 109.68 101.822 115.78 105.033C116.69 105.458 117.52 106.047 118.22 106.768C117.01 106.766 115.81 106.59 114.65 106.248L96.0901 100.954C88.1701 98.872 80.9301 94.707 74.1401 90.194C67.3401 85.6822 61.25 80.389 56.63 73.7075C54.8 70.9307 53.0601 67.8069 53.4101 64.4227C53.7501 61.0386 55.06 60.7782 56.19 59.2163Z" fill="white"/>
<path d="M27.36 109.024C28.84 105.206 33.28 102.256 37.29 103.818C41.3 105.38 41.9099 110.413 42.6899 114.231C44.6899 122.734 43.04 131.412 41.38 139.829C38.21 153.663 31.93 166.6 23 177.662C19.22 182.446 15.1501 186.995 10.8101 191.285C8.02006 193.628 4.97004 195.624 1.92004 197.707H0.699951C4.18995 192.847 8.11005 188.335 11.6801 183.563C14.2401 179.692 16.31 175.525 17.86 171.154C20.21 163.518 23.5199 156.142 24.5699 148.159C25.8799 141.998 25.44 135.664 25.79 129.416C26.14 123.168 24.48 115.445 27.36 109.024Z" fill="white"/>
<path d="M91.74 104.859C94.84 104.477 97.9901 105.024 100.78 106.43C103.58 107.836 105.89 110.038 107.42 112.756C112.21 120.565 107.94 131.846 99.3201 134.796C96.7801 135.763 94.0301 136.056 91.3401 135.645C88.6501 135.234 86.12 134.134 83.98 132.453C82.05 130.834 80.5201 128.794 79.5101 126.492C78.5001 124.19 78.0301 121.687 78.1501 119.177C78.4601 115.615 79.98 112.263 82.44 109.665C84.91 107.066 88.18 105.373 91.74 104.859Z" fill="white"/>
<path d="M46.26 112.061C46.44 107.983 51.3999 105.466 54.9699 107.375C64.2999 111.28 71 119.524 76.14 128.028C84.13 140.847 88.7199 155.477 89.4699 170.546C89.7299 173.67 89.5599 176.794 89.7299 179.918C89.9199 186.344 88.9401 192.75 86.8601 198.835C85.5501 195.364 85.9899 191.546 85.4599 187.814C85.1499 180.024 83.26 172.378 79.89 165.34C77.1 159.873 75.1 154.06 71.79 148.853C66.3 140.176 58.7199 133.06 51.7499 125.424C48.5299 121.867 45.57 117.181 46.26 112.061Z" fill="white"/>
<path d="M116.39 132.019C119 131.412 121.7 130.718 124.23 131.932C130.33 134.622 134.51 140.002 139.39 144.254C145.1 150.254 151.75 155.294 159.08 159.179C167.09 164.125 176.5 165.774 184.95 169.939C182.69 170.72 180.25 169.852 177.89 169.679C167.7 168.03 157.16 167.77 147.49 163.865C137.82 159.96 128.59 155.188 121.01 148.159C118.22 145.556 115.69 142.519 114.74 138.788C113.78 135.056 115.35 134.102 116.39 132.019Z" fill="white"/>
</svg>
