<svg width="164" height="46" viewBox="0 0 164 46" fill="none" xmlns="http://www.w3.org/2000/svg">
<path d="M89.5676 39.2493C88.8275 39.2493 88.1999 39.11 87.677 38.8396C87.154 38.5692 86.6955 38.1759 86.2852 37.6515L87.1541 36.783C87.4517 37.2009 87.7896 37.5122 88.1758 37.7253C88.5619 37.9383 89.0447 38.0448 89.6078 38.0448C90.171 38.0448 90.6135 37.9219 90.9514 37.6761C91.2893 37.4303 91.4582 37.0944 91.4582 36.6683C91.4582 36.316 91.3778 36.0292 91.2169 35.808C91.056 35.5949 90.8388 35.4065 90.5652 35.2672C90.2917 35.1279 89.994 34.9968 89.6642 34.8903C89.3424 34.7756 89.0205 34.6526 88.6907 34.5216C88.3689 34.3905 88.0712 34.2266 87.7977 34.0299C87.5241 33.8333 87.3069 33.5793 87.146 33.2597C86.9771 32.9402 86.8966 32.5387 86.8966 32.0635C86.8966 31.5309 87.0253 31.072 87.2828 30.6951C87.5402 30.3182 87.8861 30.0314 88.3367 29.8266C88.7792 29.6218 89.286 29.5234 89.8411 29.5234C90.4526 29.5234 90.9996 29.6463 91.4904 29.8839C91.9731 30.1216 92.3754 30.4411 92.6811 30.8262L91.8203 31.6947C91.5387 31.367 91.241 31.1212 90.9192 30.9573C90.5974 30.7935 90.2354 30.7115 89.817 30.7115C89.3102 30.7115 88.916 30.8262 88.6183 31.0474C88.3206 31.2687 88.1678 31.58 88.1678 31.9815C88.1678 32.3011 88.2482 32.5551 88.4172 32.7517C88.5861 32.9484 88.8033 33.1122 89.0688 33.2515C89.3424 33.3908 89.64 33.5137 89.9699 33.6284C90.2997 33.7432 90.6215 33.8661 90.9514 34.0053C91.2732 34.1364 91.5709 34.3167 91.8444 34.5216C92.1099 34.7346 92.3271 34.9968 92.4961 35.3327C92.665 35.6605 92.7455 36.0783 92.7455 36.5782C92.7455 37.4139 92.4559 38.0694 91.8847 38.5364C91.3134 39.0117 90.5411 39.2411 89.5676 39.2411V39.2493Z" fill="white"/>
<path d="M94.4512 39.1094V29.6621H95.7223V39.1094H94.4512ZM95.304 35.4386V34.3243H97.8543C98.2083 34.3243 98.522 34.2505 98.7956 34.1113C99.0691 33.9638 99.2863 33.7589 99.4392 33.4967C99.6001 33.2345 99.6725 32.9232 99.6725 32.5545C99.6725 32.1858 99.592 31.8744 99.4392 31.6122C99.2783 31.35 99.0691 31.1451 98.7956 30.9977C98.522 30.8502 98.2083 30.7846 97.8543 30.7846H95.304V29.6703H97.9347C98.5059 29.6703 99.0289 29.785 99.4794 30.0226C99.93 30.2602 100.292 30.588 100.557 31.0222C100.823 31.4565 100.96 31.9645 100.96 32.5545C100.96 33.1444 100.823 33.6442 100.557 34.0703C100.292 34.5045 99.93 34.8323 99.4794 35.0781C99.0289 35.3157 98.514 35.4386 97.9347 35.4386H95.304Z" fill="white"/>
<path d="M106.889 39.2489C106.221 39.2489 105.602 39.126 105.031 38.872C104.459 38.618 103.953 38.2739 103.518 37.8232C103.084 37.3726 102.754 36.8564 102.512 36.2664C102.271 35.6765 102.15 35.0456 102.15 34.3737C102.15 33.7018 102.271 33.0627 102.512 32.4728C102.754 31.891 103.084 31.3748 103.51 30.9324C103.936 30.4899 104.435 30.1458 105.006 29.9C105.578 29.6542 106.197 29.5312 106.857 29.5312C107.517 29.5312 108.144 29.6542 108.715 29.9C109.286 30.1458 109.785 30.4899 110.22 30.9324C110.654 31.3748 110.992 31.891 111.233 32.481C111.475 33.0709 111.596 33.71 111.596 34.3819C111.596 35.0538 111.475 35.6847 111.233 36.2746C110.992 36.8646 110.654 37.3808 110.228 37.8232C109.801 38.2657 109.303 38.618 108.731 38.8638C108.16 39.1178 107.549 39.2407 106.889 39.2407V39.2489ZM106.865 38.0281C107.541 38.0281 108.128 37.8724 108.643 37.561C109.15 37.2497 109.552 36.8154 109.85 36.2664C110.147 35.7175 110.3 35.0865 110.3 34.3819C110.3 33.8575 110.212 33.3741 110.043 32.9316C109.874 32.4891 109.632 32.1122 109.327 31.7845C109.021 31.4568 108.659 31.2028 108.249 31.0307C107.838 30.8586 107.372 30.7685 106.873 30.7685C106.205 30.7685 105.618 30.9242 105.111 31.2273C104.604 31.5387 104.202 31.9648 103.912 32.5055C103.623 33.0463 103.47 33.6772 103.47 34.3819C103.47 34.9063 103.55 35.3979 103.719 35.8485C103.888 36.2992 104.121 36.6843 104.419 37.0038C104.717 37.3234 105.079 37.5774 105.497 37.7577C105.916 37.9379 106.374 38.0281 106.865 38.0281Z" fill="white"/>
<path d="M113.342 39.1094V29.6621H114.613V39.1094H113.342ZM114.195 34.9962V33.9228H116.729C117.276 33.9228 117.702 33.7835 118 33.5049C118.298 33.2263 118.443 32.8412 118.443 32.3578C118.443 31.9072 118.298 31.5303 118 31.2271C117.71 30.9321 117.284 30.7764 116.737 30.7764H114.187V29.6621H116.777C117.372 29.6621 117.887 29.7768 118.33 30.0062C118.772 30.2357 119.11 30.5552 119.352 30.9485C119.593 31.35 119.714 31.8088 119.714 32.325C119.714 32.8412 119.593 33.3247 119.352 33.7261C119.11 34.1276 118.772 34.439 118.33 34.6602C117.887 34.8815 117.372 34.9962 116.777 34.9962H114.187H114.195ZM118.74 39.1094L115.337 34.8733L116.536 34.4554L120.341 39.1094H118.732H118.74Z" fill="white"/>
<path d="M120.453 30.8416V29.6699H128.08V30.8416H120.453ZM123.639 39.1172V29.9485H124.91V39.1172H123.639Z" fill="white"/>
<path d="M131.613 39.2493C130.872 39.2493 130.245 39.11 129.722 38.8396C129.199 38.5692 128.732 38.1759 128.33 37.6515L129.191 36.783C129.489 37.2009 129.835 37.5122 130.221 37.7253C130.607 37.9383 131.082 38.0448 131.653 38.0448C132.224 38.0448 132.658 37.9219 132.996 37.6761C133.334 37.4303 133.503 37.0944 133.503 36.6683C133.503 36.316 133.423 36.0292 133.262 35.808C133.101 35.5949 132.884 35.4065 132.61 35.2672C132.337 35.1279 132.039 34.9968 131.717 34.8903C131.395 34.7756 131.074 34.6526 130.744 34.5216C130.422 34.3905 130.124 34.2266 129.851 34.0299C129.577 33.8333 129.36 33.5793 129.199 33.2597C129.03 32.9402 128.95 32.5387 128.95 32.0635C128.95 31.5309 129.078 31.072 129.336 30.6951C129.593 30.3182 129.939 30.0314 130.39 29.8266C130.832 29.6218 131.339 29.5234 131.894 29.5234C132.506 29.5234 133.053 29.6463 133.543 29.8839C134.026 30.1216 134.428 30.4411 134.726 30.8262L133.865 31.6947C133.584 31.367 133.286 31.1212 132.972 30.9573C132.65 30.7935 132.288 30.7115 131.87 30.7115C131.363 30.7115 130.969 30.8262 130.671 31.0474C130.374 31.2687 130.229 31.58 130.229 31.9815C130.229 32.3011 130.309 32.5551 130.478 32.7517C130.647 32.9484 130.864 33.1122 131.13 33.2515C131.395 33.3908 131.701 33.5137 132.031 33.6284C132.361 33.7432 132.683 33.8661 133.012 34.0053C133.334 34.1364 133.632 34.3167 133.905 34.5216C134.171 34.7346 134.388 34.9968 134.557 35.3327C134.726 35.6605 134.807 36.0783 134.807 36.5782C134.807 37.4139 134.517 38.0694 133.946 38.5364C133.375 39.0117 132.602 39.2411 131.629 39.2411L131.613 39.2493Z" fill="white"/>
<path d="M70.967 19.1325L72.5518 22.3363C72.5518 22.3363 70.7256 23.8603 67.1776 23.8603C62.5516 23.8603 58.3037 20.0584 58.3037 15.3389C58.3037 10.6193 62.5355 6.75195 67.1776 6.75195C70.7336 6.75195 72.5518 8.27597 72.5518 8.27597L70.967 11.4797C70.967 11.4797 69.6556 10.4555 67.7489 10.4555C63.9998 10.4555 62.3505 13.0938 62.3505 15.2979C62.3505 17.502 63.9998 20.1568 67.7489 20.1568C69.6556 20.1568 70.967 19.1325 70.967 19.1325Z" fill="white"/>
<path d="M77.7086 23.5571H73.9756V7.04688H77.7086V13.6264H82.9863V7.04688H86.7192V23.5571H82.9863V16.9366H77.7086V23.5571Z" fill="white"/>
<path d="M94.958 7.04688C97.991 7.04688 100.292 8.71018 100.292 11.9467C100.292 14.4293 98.9404 16.0927 96.9371 16.7318L102.569 23.5571H97.8221L92.818 17.0349V23.5571H89.085V7.04688H94.9419H94.958ZM93.2685 14.372C94.6764 14.372 96.3659 14.2737 96.3659 12.2089C96.3659 10.1441 94.6764 10.0458 93.2685 10.0458H92.8341V14.3638H93.2685V14.372Z" fill="white"/>
<path d="M110.823 6.75195C115.368 6.75195 119.061 10.4719 119.061 15.2979C119.061 20.124 115.529 23.8603 110.823 23.8603C106.116 23.8603 102.568 20.1158 102.568 15.2979C102.568 10.4801 106.317 6.75195 110.823 6.75195ZM110.823 20.2141C113.799 20.2141 115.03 17.756 115.03 15.2897C115.03 12.8234 113.719 10.3654 110.823 10.3654C107.926 10.3654 106.591 12.8234 106.591 15.2897C106.591 17.756 107.757 20.2141 110.823 20.2141Z" fill="white"/>
<path d="M124.436 23.5571H120.703V7.04688H124.436L130.945 17.2889H130.985V7.04688H134.718V23.5571H130.985L124.476 13.315H124.436V23.5571Z" fill="white"/>
<path d="M149.673 17.6904C149.673 21.7709 147.453 23.852 143.285 23.852C139.118 23.852 136.897 21.7709 136.897 17.6904V7.04688H140.63V16.5925C140.63 19.3537 141.467 20.1567 143.293 20.1567C145.12 20.1567 145.948 19.3537 145.948 16.5925V7.04688H149.681V17.6904H149.673Z" fill="white"/>
<path d="M162.578 8.30874L161.066 11.3076C161.066 11.3076 159.441 10.1687 157.751 10.1687C156.48 10.1687 155.804 10.7504 155.804 11.6517C155.804 12.553 157.349 13.2331 159.215 14.0361C161.042 14.8145 163.045 16.3795 163.045 18.5344C163.045 22.4756 160.068 23.8603 156.874 23.8603C153.045 23.8603 150.72 21.6808 150.72 21.6808L152.586 18.518C152.586 18.518 154.766 20.378 156.593 20.378C157.405 20.378 158.95 20.296 158.95 18.7556C158.95 17.5512 157.204 17.0186 155.257 16.0354C153.294 15.0521 152.144 13.5117 152.144 11.791C152.144 8.71023 154.839 6.75195 157.486 6.75195C160.462 6.75195 162.562 8.30874 162.562 8.30874H162.578Z" fill="white"/>
<path d="M40.3791 0.320312H4.44099C1.98719 0.320312 0 2.33595 0 4.81863V41.182C0 43.6647 1.98719 45.6803 4.44099 45.6803H40.3791C42.8328 45.6803 44.82 43.6647 44.82 41.182V4.81863C44.82 2.33595 42.8328 0.320312 40.3791 0.320312Z" fill="url(#paint0_radial_490_35009)"/>
<path d="M44.8207 41.1747V32.0715L32.3586 10.5059L11.8594 22.4768L17.8611 32.9974L12.4145 36.1847L17.8289 45.673H40.3556C42.8094 45.673 44.8046 43.6573 44.8046 41.1665L44.8207 41.1747Z" fill="#102D69"/>
<path fill-rule="evenodd" clip-rule="evenodd" d="M29.6793 26.4831L27.7082 23.0254L24.2889 25.0246L14.0393 31.0142C12.1567 32.1121 11.5051 34.5538 12.5912 36.463L14.5622 39.9207L17.9814 37.9214L28.2311 31.9319C30.1137 30.8339 30.7654 28.3922 29.6793 26.4831Z" fill="#D7D8D8"/>
<path fill-rule="evenodd" clip-rule="evenodd" d="M32.6232 10.9643L30.2579 6.81836L26.1548 9.2109L13.8617 16.3967C11.601 17.7159 10.8206 20.6492 12.132 22.9353L14.4973 27.0812L18.6003 24.6887L30.8935 17.5029C33.1542 16.1837 33.9346 13.2504 32.6232 10.9643Z" fill="white"/>
<path fill-rule="evenodd" clip-rule="evenodd" d="M24.1684 21.4277L14.498 27.0813L18.046 28.6791L27.7244 23.0255L24.1764 21.4277H24.1684Z" fill="#B0B0AF"/>
<defs>
<radialGradient id="paint0_radial_490_35009" cx="0" cy="0" r="1" gradientUnits="userSpaceOnUse" gradientTransform="translate(0.367667 1.69357) scale(57.3626 58.0438)">
<stop stop-color="#164194"/>
<stop offset="0.62" stop-color="#14387F"/>
</radialGradient>
</defs>
</svg>
