<svg width="236" height="196" viewBox="0 0 236 196" fill="none" xmlns="http://www.w3.org/2000/svg">
<mask id="mask0_1_76" style="mask-type:luminance" maskUnits="userSpaceOnUse" x="0" y="0" width="236" height="196">
<path d="M235.4 0H0V195.1H235.4V0Z" fill="white"/>
</mask>
<g mask="url(#mask0_1_76)">
<path d="M168.6 1.09996C169.6 -0.600043 169.2 1.99996 169.2 2.49996C163.4 26.2 157.4 49.8 151.5 73.4C150.2 80 148.8 87.1 144.3 92.3C140.2 94.6 134.3 92.9 131.9 88.8C131.3 84.1 132.5 79.5 133.7 75.1C136 68 138.2 60.7 141.8 54.1C145 48.1 147.6 41.7 150.2 35.4C155.2 25.2 160.6 15.3 165.9 5.29996C166.7 3.89996 167.4 2.29996 168.6 1.09996Z" fill="white"/>
<path d="M103.1 54.0998C109.7 53.4998 116.7 56.1998 120.9 61.4998C123.8 64.7998 125.1 69.0998 125.5 73.3998C125.3 79.9998 122 86.3999 116.4 90.0999C111.2 93.3999 104.4 94.4999 98.4998 92.1999C89.4998 89.3999 83.2998 79.0998 85.4998 69.7998C87.2998 61.3998 94.6999 54.9998 103.1 54.0998Z" fill="white"/>
<path d="M194.8 53.7L195.9 54.5999C189.8 78.2999 184 102.1 178 125.9C176.8 131.7 175.7 137.7 172.6 142.8C170 148.7 161 146.7 158.3 141.9C157.7 137.2 158.9 132.6 160.1 128.1C162.4 121 164.6 113.7 168.1 107.1C171.3 101.1 173.9 94.7 176.5 88.4C182.4 76.7 188.7 65.2 194.8 53.7Z" fill="white"/>
<path d="M0 96.1C28 96.3 56.0001 97.8 84.1001 98.3C87.4001 98.6 90.7 99.3 94 100.2C98.7 102.9 98.0998 110.2 94.7998 113.8C92.1998 115.2 89.0998 115.2 86.2998 115.2C75.8998 115.3 65.3998 114 55.2998 111C47.5998 108.8 39.4998 108.2 31.7998 105.9C22.4998 103.4 13.1999 100.6 3.8999 98C2.4999 97.7 1 97.3 0 96.1Z" fill="white"/>
<path d="M129.6 107C136.2 106.4 143.1 109.1 147.3 114.3C150.2 117.6 151.5 122 152 126.3C151.8 132.8 148.5 139.3 143 142.9C137.7 146.3 130.9 147.3 125 145.1C115.9 142.3 109.8 132 112 122.7C113.8 114.4 121.1 107.9 129.6 107Z" fill="white"/>
<path d="M26.5 149C54.5 149.3 82.6001 150.7 110.6 151.3C113.9 151.6 117.2 152.3 120.4 153.2C125.2 155.9 124.5 163.2 121.2 166.8C119.2 167.8 116.8 168.1 114.6 168.1C103.8 168.3 92.9 167.2 82.5 164.1C76.3 162.4 69.9 161.4 63.5 160.2C52.6 157.5 41.8 154.2 31 151.2C29.4 150.8 27.5 150.5 26.5 149Z" fill="white"/>
<path d="M93.5002 188.4C110.2 187.1 124 174.9 140.9 174.9C159.2 174.8 173.9 188.7 192 189.7C202.9 189.4 211.9 182.5 221.3 177.8C224.9 176.1 228.9 174.2 233 174.5C235.5 174.7 236.5 178.8 233.9 179.6C230 180.3 226 181.4 222.6 183.5C212.5 189 202.2 196.2 190.1 195.2C173.2 194.4 159.6 181.7 142.8 180.6C129.7 180.2 118.3 187.5 106.4 191.7C100.3 193.9 93.7003 194.5 87.2003 194C75.7003 192.9 66.2003 184.7 54.6003 183.9C45.1003 183.4 35.8001 186.5 26.9001 189.5C24.4001 190.4 21.7002 191.6 19.0002 190.8C17.8002 189.8 18.1003 188.3 18.1003 186.9C21.9003 184.8 26.1 183.6 30.3 182.3C38.4 179.7 46.9002 177.6 55.5002 178.3C61.4002 179 67.1001 180.6 72.4001 183.3C78.9001 186.3 86.1002 189.2 93.5002 188.4Z" fill="white"/>
</g>
</svg>
