<svg width="210" height="197" viewBox="0 0 210 197" fill="none" xmlns="http://www.w3.org/2000/svg">
<path d="M184.4 36.3C184.414 37.034 184.381 37.769 184.3 38.5L184 40.7C183.8 41.4 183.7 42.1 183.5 42.9L182.7 45C182.4 45.6 182.1 46.3 181.7 47L180.6 48.9L179.3 50.7L177.8 52.3C177.285 52.855 176.715 53.357 176.1 53.8L174.3 55.2C173.702 55.625 173.066 55.993 172.4 56.3C171.765 56.692 171.095 57.027 170.4 57.3L168.3 58C167.584 58.259 166.848 58.459 166.1 58.6L163.9 58.9H159.5L157.3 58.6C156.552 58.459 155.816 58.259 155.1 58L153 57.3C152.305 57.027 151.635 56.692 151 56.3C150.334 55.993 149.698 55.625 149.1 55.2C148.441 54.815 147.835 54.344 147.3 53.8C146.665 53.383 146.093 52.878 145.6 52.3L144.1 50.7L142.8 48.9L141.6 47L140.7 45C140.39 44.317 140.123 43.616 139.9 42.9C139.697 42.175 139.53 41.441 139.4 40.7C139.202 39.983 139.101 39.243 139.1 38.5C139.019 37.769 138.986 37.034 139 36.3C138.983 35.532 139.017 34.763 139.1 34C139.101 33.256 139.202 32.516 139.4 31.8C139.53 31.058 139.697 30.324 139.9 29.6C140.123 28.884 140.39 28.182 140.7 27.5L141.6 25.5L142.8 23.6L144.1 21.8L145.6 20.2C146.093 19.621 146.665 19.116 147.3 18.7C147.835 18.155 148.441 17.684 149.1 17.3C149.698 16.875 150.334 16.506 151 16.2C151.635 15.807 152.305 15.472 153 15.2L155.1 14.5L157.3 13.9L159.5 13.6H163.9L166.1 13.9L168.3 14.5L170.4 15.2C171.095 15.472 171.765 15.807 172.4 16.2C173.066 16.506 173.702 16.875 174.3 17.3L176.1 18.7C176.715 19.142 177.285 19.644 177.8 20.2L179.3 21.8L180.6 23.6L181.7 25.5C182.073 26.146 182.407 26.813 182.7 27.5L183.5 29.6C183.7 30.4 183.8 31.1 184 31.8L184.3 34C184.383 34.763 184.417 35.532 184.4 36.3Z" fill="white"/>
<path d="M0.5 80C0.5 80 15.9 116.3 63.1 116.3C116.1 116.3 118.7 100.4 154.4 100.4C188.2 100.4 209.2 104.5 209.2 104.5C209.2 104.5 185.1 83.3 154.4 83.3C123.7 83.3 97 98.8 63.1 98.8C22.5 98.8 0.5 80 0.5 80Z" fill="white"/>
<path d="M130.8 68C106.8 68 56.4 92.9 45.8 78.4C51.2 75.7 95.3 48.6 95.3 48.6L87.1 30.5C87.1 30.5 85.4 23.1 79.2 25.1C73 27.1 42.9 38.8 37.9 40.7C25.3 45.5 20.2 36 32.4 28.9C48.1 19.7 77.7 5.00028 82.2 2.60028C86.7 0.200279 93.3 -0.999722 98.1 7.20028C105.1 19.2 131.5 60.3 131.5 60.3C131.5 60.3 135.9 68 130.8 68Z" fill="white"/>
</svg>
