<svg width="226" height="138" viewBox="0 0 226 138" fill="none" xmlns="http://www.w3.org/2000/svg">
<mask id="mask0_1_88" style="mask-type:luminance" maskUnits="userSpaceOnUse" x="0" y="0" width="226" height="138">
<path d="M226 0H0V137.3H226V0Z" fill="white"/>
</mask>
<g mask="url(#mask0_1_88)">
<path d="M13.9999 24.9C15.5999 22.4999 15.7999 18.3 19.1999 17.7C18.0999 24.7 17.2 31.8 17.1 38.9C17.4 50.3 22.5 61.8 31.6 68.8C41.5 76 54.7 73.1 65.3 78.6C68.1 80.2 70.7 82.4 72.3 85.3C73.5 88.6 71.9 92.2 69.1 94C64.9 97.8 58.9999 97.4 53.6999 97C38.2999 96 23.7 87.7999 14.8 75.3999C8.29999 66.0999 7.69989 54 9.19989 43.1C10.2999 36.9 10.4999 30.4 13.9999 24.9Z" fill="white"/>
<path d="M97 45.9001C103.6 45.3001 110.6 48.0001 114.8 53.2001C117.7 56.5001 119 60.8001 119.5 65.1001C119.3 71.6001 116 78.0001 110.5 81.7001C105.3 85.1001 98.4 86.1 92.5 83.9C83.4 81.1 77.2999 70.9001 79.3999 61.6001C81.0999 53.2001 88.5 46.7001 97 45.9001Z" fill="white"/>
<path d="M124.1 85.5C127.5 85 131 84.9 134.5 85.1C165 90.5 195.5 95.4 226 100.6C224.4 102.5 221.7 101.8 219.5 102.3C207.3 103 195.2 104.5 183 104.8C168.8 103.7 154.5 106.6 140.3 104.6C133.9 103.7 127.1 103.4 121.5 100C118.4 95.6 119.5 88.4 124.1 85.5Z" fill="white"/>
<path d="M75.4999 130.5C92.1999 129.2 106 117 122.9 117C141.2 116.8 155.9 130.7 174 131.7C184.7 131.5 193.6 124.9 202.8 120.1C206.6 118.2 210.8 116.2 215.1 116.5C217.7 116.6 218.6 120.8 216 121.6C212.1 122.3 208.2 123.4 204.7 125.4C194.6 130.8 184.3 138.1 172.2 137.1C155 136.3 141.1 123.1 123.8 122.5C111.1 122.6 100.1 129.5 88.4999 133.6C82.2999 135.8 75.6999 136.4 69.1999 135.9C57.6999 134.8 48.2 126.7 36.6 125.9C27.1 125.3 17.8999 128.4 8.99991 131.4C6.39991 132.3 3.69991 133.6 0.999911 132.7C-0.200089 131.8 0.100009 130.1 0.100009 128.8C4.10001 126.6 8.49996 125.5 12.8 124.1C20.8 121.6 29.0999 119.6 37.4999 120.2C43.0999 120.9 48.5999 122.4 53.6999 124.8C60.2999 128.3 67.6999 131.4 75.4999 130.5Z" fill="white"/>
<path d="M34.8 0C43.1 0 49.8999 6.7 49.8999 15C49.8999 23.3 43.2 30 34.8 30C26.5 30 19.7 23.3 19.7 15C19.7 6.7 26.5 0 34.8 0ZM34.8 5.3C29.4 5.3 25 9.6 25 15C25 20.4 29.4 24.7 34.8 24.7C40.2 24.7 44.6001 20.3 44.6001 15C44.6001 9.7 40.2 5.3 34.8 5.3Z" fill="white"/>
</g>
</svg>
