<svg width="229" height="188" viewBox="0 0 229 188" fill="none" xmlns="http://www.w3.org/2000/svg">
<mask id="mask0_1_98" style="mask-type:luminance" maskUnits="userSpaceOnUse" x="0" y="0" width="229" height="188">
<path d="M228.6 0H0V187.9H228.6V0Z" fill="white"/>
</mask>
<g mask="url(#mask0_1_98)">
<path d="M47.8999 0C49.2999 0.7 50.6 1.5 51.8 2.5C67.5 16.6 82.9001 31.1 98.6001 45.3C104 50.1 109.2 55.1 114.4 60.1C116.3 62.2 118.4 64.2 119.9 66.6C122.1 70.2 120.3 75.4 116.4 77.1C111.1 79 105.3 76.7 101.7 72.7C92.3 62.3 84 51 75.7 39.8C67.4 29.1 59.5 18.2 51.8 7.1C50.4 4.8 48.4999 2.7 47.8999 0Z" fill="white"/>
<path d="M48.8999 61.4C50.1999 57.5 53.8999 55.3 57.3999 53.7C71.1999 57.9 80.6 69.3999 89.2 80.2C93.2 85.5 97.8001 91.4 97.1001 98.5C96.2001 101.7 94.1001 104.6 92.1001 107.2C82.4001 118.6 69.3 126.5 56.2 133.4C50.5 136.3 45.0001 139.6 39.1001 142.2L37.8999 142.1C41.4999 137.5 46.0999 133.9 49.8999 129.6C59.4999 118.6 68.9 107.4 79.2 97C74.5 93.4 69.1001 90.9 64.6001 87.1C59.3001 82.7 54.2999 77.8 50.8999 71.8C49.1999 68.7 48.0999 64.9 48.8999 61.4Z" fill="white"/>
<path d="M141.3 60.2999C147.1 59.7999 153.3 62.0999 157 66.7999C159.6 69.6999 160.7 73.5999 161.1 77.4C160.9 81.8 159.3 86.2 156.2 89.4C151.4 94.6 143.2 96.4 136.7 93.8C127.7 90.7 122.4 79.3 126.9 70.6999C129.4 64.8999 135.1 61.0999 141.3 60.2999Z" fill="white"/>
<path d="M0 145.3C19.1 145.3 38.1999 145.3 57.3999 145.3C59.4999 145.1 60.5999 147.2 60.3999 149C60.3999 159 60.3999 169 60.3999 179C69.1999 175.6 78.6 171.9 88.2 173.3C97.7 174.5 105.1 182.3 114.9 182.2C128.4 182 138.7 171 152.1 170.2C160.8 169.4 168.8 173.5 176.4 177.2C182.9 180.4 190 184.3 197.6 182.5C208.6 180.6 216.1 169.8 227.6 169.6C228.1 170.8 229 171.9 228.4 173.3C227.8 174.2 226.6 174.4 225.6 174.7C217.8 176.5 212.1 182.7 204.7 185.4C199.9 187.5 194.5 188.2 189.3 187.5C179 185.5 170.5 178.7 160.5 175.9C153.3 173.7 145.7 176.1 139.1 179.3C131.3 183.1 123.2 187.5 114.2 187C103.7 187.3 95.8001 178.8 85.6001 177.9C75.6001 177.4 66.8 182.7 57.3 184.9C56.4 184.1 55.3 183.2 55.5 181.9C55.4 171.3 55.5 160.7 55.5 150.1H0V145.3Z" fill="white"/>
</g>
</svg>
