<svg width="17" height="16" viewBox="0 0 17 16" fill="none" xmlns="http://www.w3.org/2000/svg">
<path d="M12.0653 11.0777L14.9206 13.9323L13.9773 14.8757L11.1226 12.0203C10.0604 12.8718 8.73926 13.3349 7.37793 13.333C4.06593 13.333 1.37793 10.645 1.37793 7.33301C1.37793 4.02101 4.06593 1.33301 7.37793 1.33301C10.6899 1.33301 13.3779 4.02101 13.3779 7.33301C13.3799 8.69434 12.9167 10.0155 12.0653 11.0777ZM10.7279 10.583C11.574 9.71293 12.0465 8.54663 12.0446 7.33301C12.0446 4.75434 9.95593 2.66634 7.37793 2.66634C4.79926 2.66634 2.71126 4.75434 2.71126 7.33301C2.71126 9.91101 4.79926 11.9997 7.37793 11.9997C8.59155 12.0016 9.75785 11.5291 10.6279 10.683L10.7279 10.583Z" fill="#FFFFFF"/>
</svg>
