<svg width="212" height="152" viewBox="0 0 212 152" fill="none" xmlns="http://www.w3.org/2000/svg">
<mask id="mask0_1_130" style="mask-type:luminance" maskUnits="userSpaceOnUse" x="0" y="0" width="212" height="152">
<path d="M211.7 0H0V151.8H211.7V0Z" fill="white"/>
</mask>
<g mask="url(#mask0_1_130)">
<path d="M118.2 0.49988C122.44 0.0180801 126.71 1.20098 130.1 3.79988C134 6.69988 136 11.4999 136.5 16.1999C137 20.8999 133.5 27.3999 128.6 30.1999C126.48 31.5221 124.08 32.3206 121.6 32.5293C119.11 32.738 116.61 32.3508 114.3 31.3999C106.7 28.5999 102.2 19.4999 104.8 11.7999C105.73 8.83558 107.48 6.19718 109.85 4.19528C112.23 2.19348 115.12 0.91128 118.2 0.49988Z" fill="white"/>
<path d="M2 20.9999C3.25 19.2351 4.87001 17.7714 6.76001 16.716C8.65001 15.6606 10.74 15.0401 12.9 14.8999C23.5 13.9999 34.1 22.1999 35.6 32.6999C36 34.9999 35 37.1999 34.7 39.5C39.19 42.519 43.87 45.258 48.7 47.7C63.83 51.674 79.84 50.728 94.4 45C99.3 42.9 104 39.4 109.6 39.5C115.2 39.6 116 46.9 112.9 50.2C109.8 53.5 103.8 55.1 98.9 56.1C94 57.1 91.5 57.5 87.7 57.9C79.3 58.1 70.8 58.3 62.6 56.5C62.6 57.2 62.5 58.4 62.5 59.1C60.2 60.4 57.9 59.1 56 57.8C50.7 54.5 45.4 51.3 39.9 48.4C37.2 46.9 34.8 44.7 31.9 43.3C29.15 45.678 25.64 46.99 22 47C13.5 47.2 5.29995 41.8 1.69995 34.0999C0.809955 32.0219 0.380057 29.7772 0.430057 27.5173C0.480057 25.2574 1.02 23.0349 2 20.9999Z" fill="white"/>
<path d="M152.9 36.7C157.2 35.0463 161.86 34.5632 166.4 35.3C174.2 36.8 182 39.3 188.5 44C192.2 46.9 195.9 50.5 196.8 55.3C197.87 60.713 197.47 66.313 195.64 71.518C193.81 76.723 190.62 81.344 186.4 84.9C184.4 86.4 182.8 89.3 179.9 89.1C185 82.296 187.7 74 187.6 65.5C187.62 63.548 187.15 61.623 186.25 59.895C185.34 58.167 184.02 56.691 182.4 55.6C174.4 50.1 164.1 50.8 155.3 47.5C153.97 47.018 152.78 46.235 151.8 45.211C150.83 44.187 150.11 42.95 149.7 41.6C149 39.3 151 37.4 152.9 36.7Z" fill="white"/>
<path d="M147.3 81.1C150 75.8 158.3 76.3 161.4 80.9C164.5 85.5 164.4 89 164.8 93.2C165.5 103.2 164.9 113.6 168.6 123.2C171.7 130.6 178.9 135.1 185.9 138.5C192.9 141.9 202.7 144.5 211.1 147.6C209.3 149.8 206.1 148.7 203.8 148.4L178.2 142.7C170.7 140.8 162.8 137.7 158.3 131C152.16 119.697 148.04 107.414 146.1 94.7C145.7 90.2 145.1 85.3 147.3 81.1Z" fill="white"/>
<path d="M130.4 79.5C133.7 78.4 137.6 77.8 140.8 79.7C144 81.6 143.6 83.2 144.4 85.2C145.6 88.9 143.3 92.7 140.5 95C136.31 97.949 131.94 100.621 127.4 103C102.2 117.3 76.6 130.9 51.3 144.9C46.94 147.36 42.35 149.402 37.6 151L36.5 150.2C38.1 149.419 39.64 148.517 41.1 147.5C62.97 130.033 84.93 112.6 107 95.2C114.4 89.4 121.6 83.1 130.4 79.5Z" fill="white"/>
<path d="M19.2 53.5C20.53 53.5 21.82 53.893 22.92 54.629C24.02 55.365 24.88 56.412 25.39 57.636C25.9 58.86 26.03 60.207 25.77 61.507C25.51 62.807 24.8699 64.001 23.9399 64.938C22.9999 65.875 21.81 66.513 20.51 66.771C19.21 67.03 17.86 66.897 16.64 66.39C15.41 65.883 14.37 65.024 13.63 63.922C12.89 62.821 12.5 61.525 12.5 60.2C12.5 58.423 13.21 56.719 14.46 55.462C15.72 54.206 17.42 53.5 19.2 53.5Z" fill="white"/>
</g>
</svg>
