<svg width="216" height="197" viewBox="0 0 216 197" fill="none" xmlns="http://www.w3.org/2000/svg">
<mask id="mask0_1_107" style="mask-type:luminance" maskUnits="userSpaceOnUse" x="0" y="0" width="216" height="197">
<path d="M215.8 0H0V196.3H215.8V0Z" fill="white"/>
</mask>
<g mask="url(#mask0_1_107)">
<path d="M136.3 1.70004C140.2 -0.699962 145.1 -0.0999634 149.4 0.900037C154.7 2.60004 160.4 5.30004 163 10.6C164.9 14 163.6 18 162.2 21.2C165.4 23.6 168.6 26 171.8 28.5C172.9 29.3 174 30.2 175.4 30.2C188.9 30.3 202.4 30.2 215.9 30.2V34.5C203.8 34.5 191.7 34.5 179.6 34.5C183.8 37.7 188.4 40.4 191.9 44.3C191.4 45.1 191.3 46.5 190.1 46.7C188.4 47 187.2 45.6 185.9 44.8C183 51.9 178.4 58.1 173.6 64C165.9 73.8 154.4 80.8 142 82.3C136.3 82.2 129.3 83.5 125.1 78.7C124.8 76.2 126 74 128.3 72.9C138.6 67.7 150.8 68.5 161.1 63.2C168.4 59.9 173.8 53.8 179.5 48.4C181.2 46.9 182.7 45.2 184.1 43.4C180.6 40.7 177.1 38 173.5 35.4C172 34.1 170 34.6 168.2 34.5C111.9 34.5 55.5 34.5 -0.800049 34.5V30.2C55 30.2 110.9 30.2 166.7 30.2C164.3 28.4 161.9 26.6 159.5 24.9C156.8 26.8 153.6 28.5 150.2 28.4C146.3 28.7 143 26.4 140.1 24.1C136.1 20.4 133.1 15.4 133.1 9.80004C133.1 6.80004 133.6 3.40004 136.3 1.70004Z" fill="white"/>
<path d="M111.5 36.3001C116.8 35.7001 122.3 37.7001 125.9 41.7001C128.2 44.5001 129.7 47.9001 129.9 51.5001C129.7 57.9001 125.5 64.1001 119.4 66.2001C112.1 69.1001 102.9 66.1001 99.2 59.1001C96.5 54.7001 96.5001 49.0001 99.1001 44.6001C101.5 39.9001 106.5 37.0001 111.5 36.3001Z" fill="white"/>
<path d="M39.1002 69.7001C49.7002 63.0001 62.4002 58.2001 75.1002 60.0001C80.2002 60.5001 85.0001 62.6001 89.2001 65.4001C91.6001 67.5001 92.1002 71.7001 89.6002 73.9001C88.3002 75.4001 86.1002 74.9001 84.3002 74.9001C75.8002 73.5001 67 72.3001 58.4 73.7001C54 74.2001 49.8002 75.4001 45.6002 76.7001C37.7002 79.5001 30.6001 84.1001 23.2001 87.9001C23.1001 86.6001 24.0002 85.6001 24.6002 84.6001C28.3002 78.8001 33.1002 73.4001 39.1002 69.7001Z" fill="white"/>
<path d="M-0.800049 105.8H215.9V110.1H-0.800049V105.8Z" fill="white"/>
<path d="M76.8999 117.6C78.4999 113.8 83.2 113.2 86.7 114.5C87.7 115.7 88.7 117 89.5 118.4C90.3 119.9 92.0999 120.8 92.3999 122.7C95.6999 133.4 99.7 144.1 99.8 155.4C99.8 159.9 98.7 165.1 94.7 167.9C89.9 171.6 85 175.2 79.7 178.1C66.8 184.2 54.4 191.4 41 196.4C41.6 194.1 44.1 193.2 45.7 191.6C54.7 184.6 62.5 176.2 70.7 168.4C75.1 163.9 80.6 160.8 85.7 157.3C82.9 150.2 79.9001 143.1 77.6001 135.8C76.2001 129.9 74.5999 123.5 76.8999 117.6Z" fill="white"/>
<path d="M99.9999 116.1C102.7 114.1 106.5 114.5 109.5 115.7C118.4 118.7 124.7 126.1 130.4 133.2C143.1 150.1 155.7 167.1 168.4 184C171.7 188.3 175.9 191.9 179.2 196.2C176 196.6 173.5 193.8 170.9 192.3C161.4 185.5 151.6 178.9 142.8 171.1C132.1 162.1 122.2 152.3 112.4 142.5C106.8 136.9 101.4 130.7 99.1 122.9C98.6 120.7 98.2999 117.9 99.9999 116.1Z" fill="white"/>
</g>
</svg>
