<svg width="224" height="195" viewBox="0 0 224 195" fill="none" xmlns="http://www.w3.org/2000/svg">
<mask id="mask0_1_118" style="mask-type:luminance" maskUnits="userSpaceOnUse" x="0" y="0" width="224" height="195">
<path d="M223.1 0H0V194.9H223.1V0Z" fill="white"/>
</mask>
<g mask="url(#mask0_1_118)">
<path d="M68.8999 0.100005C74.3999 -0.499995 80.1 1.60001 83.7 5.70001C86 8.60001 87.5001 12.1 87.8001 15.8C87.7001 22.5 83.2 29 76.7 31C68.9 33.9 59.1 30.2 55.7 22.4C51.8 15.1 55.6999 5.5 62.8999 1.9C64.7999 1.1 66.7999 0.500005 68.8999 0.100005Z" fill="white"/>
<path d="M131.7 14.7C135.4 14.1 139.1 12.8 142.9 12.7C141.2 14.1 138.9 14.2 137 15.2C130.4 18.3 123.8 21.2999 117.2 24.2999C106.4 29.0999 95.5 34.1 86.5 42C132 42 177.5 42 223.1 42V46.5C181.9 46.5 140.7 46.5 99.6001 46.5C104.6 49.9 109.3 53.9 115.1 56C125.3 61.4 136.8 63.2999 148 65.5C152.1 66.0999 156.3 66.4999 160.3 67.5998L161.4 68.4C146.6 69.8 131.3 71.7 116.6 68.3C109.4 66.7 102.4 64.1 95.6001 61.4C91.2001 59.4 87.1999 55.8998 85.3999 51.2998C84.7999 49.6999 85.2999 48 85.8999 46.5C77.4999 45.0999 71.7 54.1999 63.3 52.7998C60.6 51.9999 58.9 49.2998 58.8 46.5998C39.2 46.5998 19.6 46.5998 0 46.5998V42C20.1 42 40.2 42.1 60.2 42C61.4 40.7999 62.4999 39.6999 63.8999 38.7999C69.5999 35.4 75.6 32.6 81.8 30.2C98.3 24.4 114.6 17.9 131.7 14.7Z" fill="white"/>
<path d="M58.5 95.5C59.4 93.4 61.6999 92.3 63.8999 91.9C68.7999 92.8 72.3 96.7 74.8 100.7C75.8 102.1 76.4 104.1 78.3 104.7C78.1 102.2 77.5 99.6 78.7 97.3C79.5 95.6 81.3 94.9 82.8 93.9C85.1 94.3 87.5 94.5 89.5 95.9C92.9 98.1 95.5 101.4 98.2 104.3C139.9 104.5 181.5 104.3 223.2 104.4V108.9C182.4 108.9 141.6 108.9 100.8 108.9C105 118.1 109.1 127.4 113.2 136.7C116.7 147.2 120.1 157.7 123.5 168.2C125.7 176.6 127.4 185.2 129.1 193.7L128 193.8C127.2 189.9 125.4 186.2 123.9 182.5C121.4 176.5 119.2 170.4 116.2 164.6C111.7 155.6 108.1 146.1 101.7 138.2C95.7 130 88.1 122.9 82.8 114.1C81.6 112.2 80.8 109.8 79 108.3C81.7 120.7 86.6001 132.7 88.1001 145.4C89.3001 152.9 90.5001 160.4 91.6001 167.9C92.6001 174.3 92.6 180.7 93 187.2C93.1 189.7 93.3999 192.3 92.8999 194.9C89.7999 180.3 86 165.9 81.5 151.7C77.4 135.9 65.6 123.8 59.7 108.8C39.8 108.8 19.9 108.8 0 108.8V104.4C19.4 104.4 38.9 104.4 58.3 104.4C57.9 101.4 57.4 98.3 58.5 95.5Z" fill="white"/>
<path d="M153 10.6001C161.4 10.6001 168.2 17.4001 168.2 25.8001C168.2 34.2001 161.4 41.0001 153 41.0001C144.6 41.0001 137.8 34.2001 137.8 25.8001C137.8 17.4001 144.6 10.6001 153 10.6001ZM153 15.0001C147.1 15.0001 142.2 19.8001 142.2 25.7001C142.2 31.6001 147 36.4001 153 36.4001C159 36.4001 163.8 31.6001 163.8 25.7001C163.8 19.8001 159 15.0001 153 15.0001Z" fill="white"/>
</g>
</svg>
